<?xml version="1.0" encoding="utf-8"?>

<!DOCTYPE svg PUBLIC "-//W3C//DTD SVG 1.1//EN" "http://www.w3.org/Graphics/SVG/1.1/DTD/svg11.dtd">
<svg version="1.1" id="Layer_1" xmlns="http://www.w3.org/2000/svg" xmlns:xlink="http://www.w3.org/1999/xlink" x="0px" y="0px"
	 viewBox="0 0 2632 532" style="enable-background:new 0 0 2632 532;" xml:space="preserve">
<style type="text/css">
	.st0{fill:url(#SVGID_1_);}
	.st1{fill:url(#SVGID_2_);}
	.st2{fill:url(#SVGID_3_);}
	.st3{fill:url(#SVGID_4_);}
	.st4{fill:url(#SVGID_5_);}
	.st5{fill:url(#SVGID_6_);}
	.st6{fill:url(#SVGID_7_);}
	.st7{fill:url(#SVGID_8_);}
	.st8{fill:url(#SVGID_9_);}
	.st9{fill:url(#SVGID_10_);}
	.st10{fill:url(#SVGID_11_);}
	.st11{fill:url(#SVGID_12_);}
	.st12{fill:url(#SVGID_13_);}
	.st13{fill:url(#SVGID_14_);}
	.st14{fill:url(#SVGID_15_);}
	.st15{fill:url(#SVGID_16_);}
	.st16{fill:url(#SVGID_17_);}
	.st17{fill:url(#SVGID_18_);}
	.st18{fill:url(#SVGID_19_);}
	.st19{fill:url(#SVGID_20_);}
	.st20{fill:url(#SVGID_21_);}
	.st21{fill:url(#SVGID_22_);}
	.st22{fill:url(#SVGID_23_);}
	.st23{fill:url(#SVGID_24_);}
	.st24{fill:url(#SVGID_25_);}
	.st25{fill:url(#SVGID_26_);}
	.st26{fill:url(#SVGID_27_);}
	.st27{fill:url(#SVGID_28_);}
	.st28{fill:url(#SVGID_29_);}
	.st29{fill:url(#SVGID_30_);}
	.st30{fill:url(#SVGID_31_);}
	.st31{fill:url(#SVGID_32_);}
	.st32{fill:url(#SVGID_33_);}
	.st33{fill:url(#SVGID_34_);}
	.st34{fill:url(#SVGID_35_);}
	.st35{fill:url(#SVGID_36_);}
	.st36{fill:url(#SVGID_37_);}
	.st37{fill:url(#SVGID_38_);}
	.st38{fill:url(#SVGID_39_);}
	.st39{fill:url(#SVGID_40_);}
	.st40{fill:url(#SVGID_41_);}
	.st41{fill:url(#SVGID_42_);}
	.st42{fill:url(#SVGID_43_);}
	.st43{fill:url(#SVGID_44_);}
	.st44{fill:url(#SVGID_45_);}
	.st45{fill:url(#SVGID_46_);}
	.st46{fill:url(#SVGID_47_);}
	.st47{fill:url(#SVGID_48_);}
	.st48{fill:url(#SVGID_49_);}
	.st49{fill:url(#SVGID_50_);}
	.st50{fill:url(#SVGID_51_);}
	.st51{fill:url(#SVGID_52_);}
	.st52{fill:url(#SVGID_53_);}
	.st53{fill:url(#SVGID_54_);}
	.st54{fill:url(#SVGID_55_);}
	.st55{fill:url(#SVGID_56_);}
	.st56{fill:url(#SVGID_57_);}
	.st57{fill:url(#SVGID_58_);}
	.st58{fill:url(#SVGID_59_);}
	.st59{fill:url(#SVGID_60_);}
	.st60{fill:url(#SVGID_61_);}
	.st61{fill:url(#SVGID_62_);}
	.st62{fill:url(#SVGID_63_);}
	.st63{fill:url(#SVGID_64_);}
	.st64{fill:url(#SVGID_65_);}
	.st65{fill:url(#SVGID_66_);}
	.st66{fill:url(#SVGID_67_);}
	.st67{fill:url(#SVGID_68_);}
	.st68{fill:url(#SVGID_69_);}
	.st69{fill:url(#SVGID_70_);}
	.st70{fill:url(#SVGID_71_);}
	.st71{fill:url(#SVGID_72_);}
	.st72{fill:url(#SVGID_73_);}
	.st73{fill:url(#SVGID_74_);}
	.st74{fill:url(#SVGID_75_);}
	.st75{fill:url(#SVGID_76_);}
	.st76{fill:url(#SVGID_77_);}
	.st77{fill:url(#SVGID_78_);}
	.st78{fill:url(#SVGID_79_);}
	.st79{fill:url(#SVGID_80_);}
	.st80{fill:url(#SVGID_81_);}
	.st81{fill:url(#SVGID_82_);}
	.st82{fill:url(#SVGID_83_);}
	.st83{fill:url(#SVGID_84_);}
	.st84{fill:url(#SVGID_85_);}
	.st85{fill:url(#SVGID_86_);}
	.st86{fill:url(#SVGID_87_);}
</style>
<g>
	
		<linearGradient id="SVGID_1_" gradientUnits="userSpaceOnUse" x1="326.1819" y1="363.3013" x2="365.7129" y2="363.3013" gradientTransform="matrix(1 0 0 -1 0 534)">
		<stop  offset="0" style="stop-color:#B5C634"/>
		<stop  offset="1" style="stop-color:#A92E91"/>
	</linearGradient>
	<path class="st0" d="M346.656,45.69h0.768c0.485,0.303,1.435,0.92,1.92,1.223c0.131,2.911-0.111,5.902,0.899,8.691
		c0.313,3.699-0.222,7.539,1.011,11.117c0.485,4.356-0.435,8.893,1.011,13.128c0.677,5.366-0.637,10.935,1,16.17
		c2.279,17.899,3.002,127.384,7.045,140.453c1.447,17.171,2.505,14.199,3.537,29.741c1.405,4.588,0.465,9.439,0.96,14.148
		c1.556,4.891,0.586,10.106,0.808,15.149c-13.138,0.364-26.286,0.111-39.433,0.121C332.275,196.511,337.526,122.864,346.656,45.69z"
		/>
	
		<linearGradient id="SVGID_2_" gradientUnits="userSpaceOnUse" x1="186.6589" y1="351.2267" x2="220.454" y2="351.2267" gradientTransform="matrix(1 0 0 -1 0 534)">
		<stop  offset="0" style="stop-color:#A02632"/>
		<stop  offset="1" style="stop-color:#1FF246"/>
	</linearGradient>
	<path class="st1" d="M205.183,69.843c0.627,0.03,1.87,0.091,2.496,0.121c1.005,4.089,2.082,8.853,2.082,8.853
		c0.172,3.052,0.03,6.175,1.031,9.116c0.374,4.032-0.323,8.216,0.99,12.127c0.498,8.728,6.059,187.029,8.672,195.328
		c-11.238,0.414-22.476,0.414-33.703,0.04c0.02-4.022-0.515-8.166,0.788-12.046c2.581-33.825,3.446-58.018,3.446-58.018
		c1.587-4.901,0.404-10.126,1.021-15.159c1.738-5.912,0.243-12.157,1.021-18.191c1.758-6.245,0.202-12.824,1.011-19.201
		c1.758-6.245,0.202-12.824,1.011-19.201c1.718-5.912,0.243-12.147,1.011-18.191c1.688-5.568,0.273-11.47,1.011-17.17
		c1.496-4.578,0.445-9.449,1-14.148c1.223-3.578,0.707-7.408,1.011-11.117c0.849-2.617,0.859-5.376,1.091-8.095
		c0.819-2.688,0.798-5.518,0.778-8.297C202.202,74.25,203.576,71.966,205.183,69.843z"/>
	
		<linearGradient id="SVGID_3_" gradientUnits="userSpaceOnUse" x1="634.374" y1="348.1459" x2="673.908" y2="348.1459" gradientTransform="matrix(1 0 0 -1 0 534)">
		<stop  offset="0" style="stop-color:#F68B1F"/>
		<stop  offset="0.4888" style="stop-color:#0080C8"/>
		<stop  offset="0.9944" style="stop-color:#F26122"/>
	</linearGradient>
	<path class="st2" d="M662.781,76.008h0.96c0.384,6.65-0.92,13.491,0.788,20.01c0.899,8.044-0.869,16.331,1.011,24.244
		c0.94,9.065-0.909,18.363,1.021,27.286c0.94,9.065-0.92,18.352,1,27.286c0.899,7.721-0.849,15.654,1.011,23.244
		c0.839,6.71-0.778,13.623,1.021,20.212c0.768,6.033-0.728,12.279,1.011,18.191c0.495,5.861-0.071,11.743,0.424,17.615
		c1.809,6.569,0.162,13.491,1.021,20.202c2.314,6.852-0.92,14.462,1.859,21.152c-13.178,0.697-26.356-0.303-39.534-0.121
		c4.945-12.333,7.612-146.247,12.402-195.265c0.748-2.213,0.839-4.558,0.97-6.872c0.384,0,1.152,0,1.536,0
		c1.15,5.72,3.066,22.863,3.123,23.032c0.788,6.72-0.687,13.603,0.94,20.212c0.773,9.869,1.741,13.087,2.416,20.425
		c0.455,0,1.374,0,1.839,0c0.081-1.758,0.172-3.517,0.323-5.265c1.344-4.255,0.526-8.762,0.97-13.128
		c1.758-5.912,0.253-12.157,1.031-18.201c1.769-6.235,0.202-12.824,1.011-19.201c1.627-5.235,0.323-10.793,1-16.159
		C662.963,82.051,662.771,78.989,662.781,76.008z"/>
	
		<linearGradient id="SVGID_4_" gradientUnits="userSpaceOnUse" x1="728.4091" y1="341.1898" x2="814.371" y2="341.1898" gradientTransform="matrix(1 0 0 -1 0 534)">
		<stop  offset="0" style="stop-color:#00AB66"/>
		<stop  offset="1" style="stop-color:#EC5C2F"/>
	</linearGradient>
	<path class="st3" d="M796.341,90.156h0.445c0.313,0.667,0.94,2.011,1.253,2.678c0.018,1.002,8.785,174.845,16.332,202.553
		c-8.279,0.227-77.685-0.132-85.961,0.019c-0.058-18.784,2.846-116.118,8.246-132.096c1.203,1.657,2.355,3.375,3.507,5.083
		c3.304-8.374,2.165-15.911,7.892-19.13c0.344,0.788,1.021,2.385,1.364,3.173c5.461,59.498,2.352,97.754,11.228,114.166
		c4.34,23.845,0.569,1.088,3.415,21.627h0.758c2.38-65.005,5.535-42.04,8.277-73.986c1.083-3.46,1.244-12.34,3.132-18.989
		c0.667,0,1.991,0,2.658,0c0.02,0.505,0.081,1.516,0.111,2.031c0.667-0.01,2.001-0.01,2.658-0.02
		c4.943,12.536,2.737,34.415,3.567,47.721c1.809,5.093-0.202,10.631,1.566,15.735c0.141,1.748,0.222,3.507,0.323,5.275h0.849
		C790.957,191.804,794.39,107.48,796.341,90.156z"/>
	
		<linearGradient id="SVGID_5_" gradientUnits="userSpaceOnUse" x1="1536.6307" y1="341.2547" x2="1580.4375" y2="341.2547" gradientTransform="matrix(1 0 0 -1 0 534)">
		<stop  offset="0" style="stop-color:#8FC752"/>
		<stop  offset="0.5112" style="stop-color:#363180"/>
		<stop  offset="1" style="stop-color:#F19441"/>
	</linearGradient>
	<path class="st4" d="M1557.229,94.684c1.071-1.698,2.244-3.335,3.466-4.942c0.758,1.324,1.526,2.658,2.294,4.002
		c0.584,5.056,2.274,12.816,3.042,15.382c0.079,1,0.312,16.107,1.981,21.253c0.293,3.699-0.212,7.529,1.01,11.106
		c0.606,5.033-0.566,10.258,1,15.159c0.768,6.043-0.718,12.279,1.011,18.191c0.859,7.044-0.808,14.31,1.011,21.223
		c0.879,7.377-0.829,14.977,1.021,22.233c0.526,6.528-0.111,13.097,0.424,19.636c1.647,5.831,0.445,11.996,0.798,17.968h1.011
		c-0.077-13.937,0.332-3.981,1.101-16.169h0.93c0.02,3.972-0.505,8.065,0.788,11.915c0.354,4.507,0.061,9.045,0.424,13.562
		c1.627,5.245,0.344,10.803,1.01,16.17c1.455,4.538,0.647,9.368,0.788,14.047c-14.563,0.515-29.146,0.354-43.708,0
		C1542.046,246.38,1538.838,206.359,1557.229,94.684z"/>
	
		<linearGradient id="SVGID_6_" gradientUnits="userSpaceOnUse" x1="1668" y1="338.5369" x2="1748.181" y2="338.5369" gradientTransform="matrix(1 0 0 -1 0 534)">
		<stop  offset="0.0056" style="stop-color:#00AD8E"/>
		<stop  offset="0.5" style="stop-color:#DA2128"/>
		<stop  offset="1" style="stop-color:#F26922"/>
	</linearGradient>
	<path class="st5" d="M1699.895,95.199l0.435-0.01c5.276,13.907,4.952,60.846,8.156,70.559c0.202,3.668,0.061,7.367,0.728,11.005
		c0.243,0.414,0.728,1.243,0.98,1.657c2.128,14.263,3.277,42.711,5.669,56.835c0.768,0.819,1.566,1.637,2.375,2.456
		c1.051,0,2.122,0.01,3.214,0.01c0.515-0.596,1.526-1.779,2.031-2.365c1.132,1.991,2.223,4.002,3.365,6.013
		c0,0.465,0,1.405,0.01,1.87c0.95,1.395,1.92,2.799,2.941,4.174c0.167-6.2,2.573-33.192,5.741-43.667
		c0.778,1.011,1.536,2.041,2.334,3.072c0,0.001,2.939,23.571,2.951,23.608c2.818,27.65-0.76,22.422,3.354,44.062
		c0.576,1.081,1.182,2.163,1.809,3.244c0.86,6.969,2.193,8.507,2.193,17.665c-26.73-0.273-53.46,0.91-80.181,0
		c0.243-2.001,0.515-4.002,1.061-5.932c0.728-5.71-0.687-11.612,1.021-17.18c0.596-5.043-0.556-10.247,1.011-15.159
		c1.704-25.747-0.03-1.404,2.386-25.821c0.303-0.718,0.899-2.153,1.203-2.87c1.091,0.455,2.213,0.92,3.365,1.385
		c0.293-0.718,0.889-2.153,1.193-2.87c0.365-3.287,0.251-1.844,2.446-10.46c0.404,0,1.213,0,1.607,0
		c0.668,6.027,1.06,3.082,1.243,11.126l0.778-0.01c0.513-2.256,13.109-125.969,13.512-129.73
		C1699.086,97.2,1699.622,95.866,1699.895,95.199z"/>
	
		<linearGradient id="SVGID_7_" gradientUnits="userSpaceOnUse" x1="860.6779" y1="334.6618" x2="902.252" y2="334.6618" gradientTransform="matrix(1 0 0 -1 0 534)">
		<stop  offset="0" style="stop-color:#37E9F9"/>
		<stop  offset="0.5337" style="stop-color:#7F440D"/>
		<stop  offset="1" style="stop-color:#6CF222"/>
	</linearGradient>
	<path class="st6" d="M880.291,102.981c0.364,0.424,1.102,1.263,1.475,1.688c4.402,20.9-0.628,29.97,10.047,78.21
		c7.083,69.508,3.364-10.843,10.439,112.458c-13.815,0.091-27.64,0.707-41.455,0.081c0.55-12.131-1.588-13.401,2.163-33.774
		c0.414,0.404,1.253,1.223,1.678,1.627c0.192-2.072,0.404-4.154,1.011-6.155c0.677-5.366-0.627-10.925,1.011-16.159
		c0.394-4.861,0.02-9.732,0.424-14.583c0.312-1.005,4.94-62.687,5.013-63.687C875.1,151.951,878.321,113.794,880.291,102.981z"/>
	
		<linearGradient id="SVGID_8_" gradientUnits="userSpaceOnUse" x1="1395.0645" y1="332.6401" x2="1477.6205" y2="332.6401" gradientTransform="matrix(1 0 0 -1 0 534)">
		<stop  offset="0.0056" style="stop-color:#00AD8E"/>
		<stop  offset="0.5" style="stop-color:#DA2128"/>
		<stop  offset="1" style="stop-color:#F26922"/>
	</linearGradient>
	<path class="st7" d="M1410.571,108.761c0.475-0.435,1.425-1.314,1.9-1.748c3.669,14.788,4.151,30.687,8.488,43.151
		c3.475,14.452,1.323,37.904,10.54,37.25c3.81,8.159,7.381,65.072,7.408,67.468h0.98c0.283-5.639-0.819-11.46,0.788-16.968
		c0.434-5.184-0.01-10.399,0.424-15.583c1.556-4.911,0.394-10.126,1.01-15.159c1.395-4.245,0.546-8.772,1-13.138
		c1.607-5.275,0.516-10.884,0.809-16.301c0.495,0.435,1.485,1.283,1.981,1.718c-0.03,2.85-0.152,5.781,0.849,8.519
		c0.586,5.033-0.566,10.247,0.99,15.159c0.839,6.71-0.788,13.623,1.021,20.202c0.505,6.205-0.101,12.43,0.424,18.625
		c1.617,5.245,0.333,10.803,1.011,16.18c1.051,2.961,0.819,6.144,0.819,9.237c0.495-0.435,1.486-1.314,1.991-1.748
		c-0.04-3.183-0.283-6.458,0.808-9.52c0.606-5.033-0.556-10.247,1.011-15.159c0.596-9.227-0.172-18.484,0.424-27.711
		c0.91-2.648,0.839-5.477,0.91-8.236c0.323-0.667,0.96-2.001,1.273-2.668c0.566,0,1.698,0,2.254,0
		c1.011-1.102,2.021-2.203,3.062-3.305c1.657,2.173,3.062,4.517,4.376,6.912c0.03,0.455,0.101,1.374,0.131,1.829
		c0.99,1.374,1.961,2.779,2.931,4.194c0.093,1.721-0.024,2.642,1.849,9.298c0.121,3.062-0.01,6.205,0.99,9.156
		c0.354,4.042-0.303,8.216,1,12.127c0.303,4.174,0.101,8.378,0.424,12.552c1.688,5.568,0.273,11.47,1.011,17.18
		c2.296,8.326-0.854,13.752,2.163,23.102c-27.519-0.333-55.037,0.889-82.556,0C1395.341,294.05,1408.505,146.302,1410.571,108.761z"
		/>
	
		<linearGradient id="SVGID_9_" gradientUnits="userSpaceOnUse" x1="2072.3279" y1="327.5768" x2="2178.6328" y2="327.5768" gradientTransform="matrix(1 0 0 -1 0 534)">
		<stop  offset="0" style="stop-color:#66C7FF"/>
		<stop  offset="0.0296" style="stop-color:#63BEF9"/>
		<stop  offset="0.1097" style="stop-color:#5EABEC"/>
		<stop  offset="0.1921" style="stop-color:#5AA0E4"/>
		<stop  offset="0.28" style="stop-color:#599CE1"/>
		<stop  offset="0.67" style="stop-color:#7524B3"/>
		<stop  offset="0.89" style="stop-color:#7E2161"/>
		<stop  offset="1" style="stop-color:#923B2E"/>
	</linearGradient>
	<path class="st8" d="M2095.038,117.442c0.354,0,1.071,0,1.425,0c9.352,51.299-1.292,47.41,15.695,172.811l0.697,0.01
		c0.051-1.034,1.264-14.204,1.89-15.978c0.445-4.366-0.404-8.893,1.021-13.128c0.515-4.699-0.495-9.57,1-14.148
		c0.263-3.84,0.131-7.701,0.424-11.541c1.182-3.588,0.708-7.408,1.011-11.117c0.114-0.368,1.298-9.546,2.314-14.623
		c1.354,1.637,2.466,3.456,3.537,5.306c0,0.718,0.01,2.142,0.01,2.85c0.97-0.93,1.95-1.87,2.971-2.799
		c0.275-1.917,1.924-10.401,5.508-17.807c0.536,0,1.607,0,2.142,0c0.354,1.88,1.385,3.416,2.85,4.639
		c0.384-0.808,1.152-2.436,1.536-3.254c0.091-1,3.41-25.65,4.457-30.984c0.414,0.424,1.243,1.273,1.657,1.688
		c0.02,2.516,0.03,5.083,0.879,7.489c0,0,1.97,73.913,2.456,80.262c0.99,2.86,0.829,5.922,0.839,8.903l0.9-0.02
		c0.03-0.505,0.111-1.506,0.151-2.001c0.667-0.03,2.001-0.081,2.658-0.111c0.748,1.233,1.486,2.466,2.274,3.709
		c0.051,0.435,0.131,1.314,0.182,1.748c0.798,1.698,1.576,3.406,2.385,5.134c0.829-1.344,1.647-2.698,2.526-4.032
		c-0.03-0.94-0.02-1.88,0.01-2.809c0.637-1.091,1.283-2.173,1.96-3.254c0.051-0.435,0.142-1.314,0.192-1.748
		c1.88-2.628,3.345-5.518,4.821-8.388c0.051-0.455,0.131-1.364,0.172-1.819c1.961-2.264,3.749-4.679,5.609-7.034
		c4.723,12.382,4.22,29.351,5.436,50.005c0,0-105.929,0.012-106.305-0.01c0-0.002,11.651-149.345,11.651-149.345
		c0.738-2.011,2.264-3.345,4.406-3.759c0.303-0.546,0.92-1.637,1.223-2.193C2089.725,137.23,2094.767,118.443,2095.038,117.442z"/>
	
		<linearGradient id="SVGID_10_" gradientUnits="userSpaceOnUse" x1="1934.0688" y1="326.6562" x2="2019.0024" y2="326.6562" gradientTransform="matrix(1 0 0 -1 0 534)">
		<stop  offset="0" style="stop-color:#F37121"/>
		<stop  offset="1" style="stop-color:#0080C8"/>
	</linearGradient>
	<path class="st9" d="M1998.879,119.14c0.414,0.424,1.263,1.263,1.678,1.688c0,0.001,7.065,22.607,7.065,22.608
		c0.164,3.648-0.232,5.572,4.002,19.191c0.068,1.002,1.517,15.646,2.052,17.261c1.387,10.856,2.541,82.046,3.477,89.357
		c2.709,9.689,1.569,21.17,1.809,26.214c-1.001,0.027-58.094,0.231-84.89-0.091c-0.205-20.428,9.587-47.51,11.136-104.496
		c0.344-0.667,1.031-1.991,1.364-2.658c0.96-0.051,1.94-0.101,2.951-0.152c1.011-0.718,2.062-1.506,3.234-2.072
		c0.859,1.162,1.617,2.415,2.395,3.658c1.715,17.942,1.881,4.054,2.223,22.111c0.323,0.748,0.96,2.223,1.273,2.971
		c0.404-0.424,1.203-1.263,1.597-1.678c1.349-12.958,2.469-6.092,2.052-20.353c0.798-1.031,1.678-2.062,2.557-3.072
		c2.512,9.321,4.587,25.01,4.587,34.926l1,0.03c-0.085-9.797,1.409-23.046,3.294-32.359h0.536
		c0.728,7.069,7.316,71.981,8.611,77.411c3.182-5.247,2.641-49.751,6.953-63.637C1997.399,197.633,1992.958,151.785,1998.879,119.14
		z"/>
	
		<linearGradient id="SVGID_11_" gradientUnits="userSpaceOnUse" x1="908.2281" y1="317.126" x2="975.0815" y2="317.126" gradientTransform="matrix(1 0 0 -1 0 534)">
		<stop  offset="0" style="stop-color:#8FC752"/>
		<stop  offset="0.5112" style="stop-color:#363180"/>
		<stop  offset="1" style="stop-color:#F19441"/>
	</linearGradient>
	<path class="st10" d="M927.809,138.372c0.374,0.414,1.122,1.253,1.496,1.667c1.811,13.687,7.251,59.131,7.317,75.066
		c0.485,0.424,1.455,1.294,1.94,1.728c0.215-6.639,2.016-16.11,2.335-17.938c0.576,1.011,1.152,2.031,1.748,3.062
		c0,3.426-0.333,6.963,0.819,10.268c0.667,5.366-0.616,10.925,1,16.17c1.081,12.121-1.43,13.311,2.082,21.101
		c0.081-1.577,0.152-3.153,0.222-4.73c0.404,0,1.213,0.01,1.617,0.01c0.374,1.253,0.778,2.496,1.203,3.739
		c0.091,1.9,0.162,3.8,0.263,5.7c0.333,0.778,1,2.345,1.334,3.133c0.859-1.354,1.698-2.708,2.567-4.063
		c0.341-5.153,2.313-8.246,3.142-14.967c2.885-5.146,1.862-0.113,6.065-33.562c0.414-0.424,1.233-1.263,1.647-1.688
		c10.829,29.274,5.768,39.706,8.59,63.142c1.698,5.568,0.283,11.47,1.011,17.18c1.294,3.86,0.758,7.994,0.798,11.986
		c-22.243-0.081-44.476,0.04-66.709-0.04c0-3.658-0.414-7.418,0.808-10.935c0.657-5.376-0.627-10.925,1-16.17
		c0.536-6.528-0.101-13.097,0.435-19.636c1.859-7.246,0.121-14.846,1.011-22.223c1.768-6.245,0.202-12.824,1.021-19.201
		c1.374-4.245,0.536-8.772,0.99-13.138c0.808-2.355,0.829-4.861,0.94-7.317c0.616,1.021,1.243,2.052,1.89,3.082
		c0.047,1.001,0.006,21.866,3.133,34.401c0.445,0.424,1.344,1.283,1.789,1.718C926.196,198.993,925.302,150.927,927.809,138.372z"/>
	
		<linearGradient id="SVGID_12_" gradientUnits="userSpaceOnUse" x1="2207.5652" y1="313.5373" x2="2253.7092" y2="313.5373" gradientTransform="matrix(1 0 0 -1 0 534)">
		<stop  offset="0" style="stop-color:#FFF200"/>
		<stop  offset="0.5" style="stop-color:#F5AE28"/>
		<stop  offset="1" style="stop-color:#6FBE45"/>
	</linearGradient>
	<path class="st11" d="M2227.385,157.664c1.96-4.042-1.324-9.934,3.264-12.481c4.695,16.979,2.571,18.122,7.81,37.331
		c11.062,31.591,5.759,88.425,15.25,112.864c-15.381,0.526-30.773,0.435-46.144,0.03c3.104-10.824-0.2-16.008,2.173-25.153
		c0.424-5.184-0.02-10.399,0.424-15.583c1.637-5.851,0.455-12.016,0.798-17.999l0.657,0.03c0.374,1.243,0.788,2.496,1.243,3.739
		c0.051,2.112,0.091,4.234,0.162,6.357h0.869c0.253-5.08,2.925-20.889,3.305-26.276c0.627,0,1.89,0,2.517,0
		c0.303-0.667,0.899-2.001,1.192-2.658C2224.434,193.671,2226.886,164.212,2227.385,157.664z"/>
	
		<linearGradient id="SVGID_13_" gradientUnits="userSpaceOnUse" x1="368.634" y1="313.0408" x2="408.128" y2="313.0408" gradientTransform="matrix(1 0 0 -1 0 534)">
		<stop  offset="0" style="stop-color:#37E9F9"/>
		<stop  offset="0.5337" style="stop-color:#7F440D"/>
		<stop  offset="1" style="stop-color:#6CF222"/>
	</linearGradient>
	<path class="st12" d="M395.205,146.467c0.414,0.424,1.233,1.263,1.647,1.678c0.04,2.526,0.03,5.093,0.899,7.499
		c2.998,29.414,2.924,107.337,3.385,117.108c0.92-1.839,1.678-3.759,2.274-5.73l0.505-0.02c2.47,13.041,1.945,11.15,2.384,17.382
		c1.294,3.577-0.03,7.63,1.829,11.026c-13.158,0.172-26.326-0.263-39.494-0.02c0.008-2.852,2.124-43.175,4.213-54.035
		c0.96-1.385,1.9-2.779,2.83-4.184c1.046-8.668,1.399-36.447,6.62-43.436c1.869,4.479,4.205,11.595,4.589,16.33
		c0.475,0.424,1.415,1.283,1.89,1.718c0.54-9.182,0.412-0.324,1.344-13.703c1.314-4.265,0.536-8.762,0.96-13.138
		c1.425-4.234,0.546-8.762,1.011-13.138c1.324-3.911,0.637-8.085,1.021-12.117c0.839-2.628,0.869-5.397,1.071-8.115
		C394.569,149.883,394.882,148.175,395.205,146.467z"/>
	
		<linearGradient id="SVGID_14_" gradientUnits="userSpaceOnUse" x1="1041.6718" y1="312.936" x2="1079.449" y2="312.936" gradientTransform="matrix(1 0 0 -1 0 534)">
		<stop  offset="0" style="stop-color:#37E9F9"/>
		<stop  offset="0.5337" style="stop-color:#7F440D"/>
		<stop  offset="1" style="stop-color:#6CF222"/>
	</linearGradient>
	<path class="st13" d="M1062.128,146.75l0.495-0.02c4.943,12.54,0.325,23.207,8.125,24.729c4.639,15.527,4.287,25.522,7.468,120.089
		c0.414,1.273,0.829,2.557,1.233,3.85c-12.592-0.222-25.184,0-37.776-0.071c-0.092-15.313,5.194-68.751,5.256-69.751
		c0.465,0,1.385,0,1.849,0c0.293,5.639-0.808,11.46,0.788,16.968c0.253,3.507,0.182,7.024,0.445,10.53
		c0.405,1.252,1.631,10.259,1.859,16.553c0.414,0.424,1.233,1.273,1.637,1.698c0.303-0.748,0.899-2.223,1.193-2.971
		C1063.251,109.95,1059.677,168.396,1062.128,146.75z"/>
	
		<linearGradient id="SVGID_15_" gradientUnits="userSpaceOnUse" x1="238.289" y1="312.432" x2="283.099" y2="312.432" gradientTransform="matrix(1 0 0 -1 0 534)">
		<stop  offset="0" style="stop-color:#0080C8"/>
		<stop  offset="0.4944" style="stop-color:#833594"/>
		<stop  offset="1" style="stop-color:#F2981F"/>
	</linearGradient>
	<path class="st14" d="M261.796,147.76l0.384-0.01c0.323,0.677,0.96,2.021,1.283,2.698c0.03,3.092-0.162,6.256,0.879,9.227
		c0.677,5.366-0.627,10.925,1.001,16.17c2.023,15.963,1.699,89.104,4.538,110.366l0.738,0.01c0.394-6.65-0.93-13.491,0.798-20.01
		c0.505-6.195-0.091-12.42,0.424-18.615c2.072-6.427-0.475-13.36,1.597-19.777c0.283-3.85,0.152-7.711,0.424-11.551
		c0.94-2.658,0.849-5.498,0.869-8.267c0.556-1.011,1.112-2.031,1.667-3.032c0.313,1.738,0.637,3.487,1.061,5.225
		c0.182,3.042,0.081,6.155,1.021,9.095c0.596,8.56-0.162,17.15,0.435,25.699c1.486,4.578,0.475,9.449,1,14.148
		c1.647,5.235,0.344,10.793,1.021,16.17c2.183,7.185-0.717,10.627,2.163,20.08c-14.937-0.121-29.873-0.101-44.81,0
		c0.215-11.495,2.2-36.258,4.405-48.224c2.516,1.597,2.729,4.608,2.82,7.307c0.374,0.424,1.102,1.294,1.475,1.728
		c0.788-1.314,1.577-2.628,2.375-3.931c0.02-0.445,0.071-1.354,0.101-1.809c0.96-1.758,1.91-3.517,2.87-5.275
		c0.061-0.455,0.182-1.354,0.243-1.799c5.209-12.42,1.231-18.154,4.092-43.284c0.16-0.486,3.969-45.735,4.064-47.519
		C261.14,150.984,261.473,149.377,261.796,147.76z"/>
	
		<linearGradient id="SVGID_16_" gradientUnits="userSpaceOnUse" x1="463.5534" y1="308.3525" x2="544.5665" y2="308.3525" gradientTransform="matrix(1 0 0 -1 0 534)">
		<stop  offset="0" style="stop-color:#8FC752"/>
		<stop  offset="0.5112" style="stop-color:#363180"/>
		<stop  offset="1" style="stop-color:#F19441"/>
	</linearGradient>
	<path class="st15" d="M530.514,155.845h0.849c0.012,4.261,4.437,78.684,6.134,93.985l0.677,0.01
		c0.929-4.228,1.378-6.036,2.941-9.712c2.706,10.673,0.6,16.74,1.567,26.083c1.738,5.912,0.242,12.147,1.021,18.181
		c1.203,3.547,0.798,7.337,0.798,11.015c-0.008,0-80.544,0.056-80.847,0.04c0.071-4.356-0.596-8.853,0.778-13.067
		c1.001-9.721-1.063-9.441,1.526-31.773c1.572-6.219,0.428-39.637,5.043-51.985c1.425,2.274,2.607,4.719,4.224,6.882
		c2.759-0.687,4.123-3.497,5.488-5.73c0.982-3.681,0.832-2.383,1.173-5.093c0.435-0.445,1.283-1.324,1.718-1.769
		c0.586,1.243,1.182,2.486,1.758,3.749c4.799,36.316,0.705,16.521,3.699,40.393c0.293,0.677,0.879,2.011,1.172,2.678l0.394,0.01
		c0.293-0.677,0.879-2.011,1.162-2.688c0.903-8.497,2.52-11.117,3.253-18.152c0.414-0.424,1.253-1.273,1.668-1.698
		c4.48,12.571,0.526,13.856,4.022,28.347c1.985,17.22,2.849,16.232,3.506,25.497l0.839,0.01c-0.101-6.589,3.405-34.037,3.578-35.038
		c2.503-5.006,4.623-30.033,4.669-31.036c0.303-0.667,0.91-1.991,1.213-2.658h0.546c2.875,14.915,4.99,42.575,7.479,48.528h0.404
		c0.283-0.677,0.859-2.021,1.152-2.688c0.101-2.436,0.192-4.891,0.96-7.216c0.283-3.85,0.141-7.711,0.424-11.551
		c1.688-5.578,0.283-11.48,1.011-17.19c1.779-6.235,0.202-12.824,1.021-19.191c1.708-5.912,0.232-12.147,1.011-18.191
		c1.294-3.911,0.616-8.085,1-12.117C530.281,160.494,530.383,158.159,530.514,155.845z"/>
	
		<linearGradient id="SVGID_17_" gradientUnits="userSpaceOnUse" x1="2468.2605" y1="307.7755" x2="2549.582" y2="307.7755" gradientTransform="matrix(1 0 0 -1 0 534)">
		<stop  offset="0.05" style="stop-color:#007DFF"/>
		<stop  offset="0.5337" style="stop-color:#A80E38"/>
		<stop  offset="1" style="stop-color:#A9913E"/>
	</linearGradient>
	<path class="st16" d="M2494.294,156.856l0.576-0.01c-0.051,13.43,10.268,44.862,10.178,75.805l1.01,0.01
		c-0.03-1.475-0.03-2.951,0-4.426c0.465,0.435,1.405,1.283,1.87,1.708c0.051,1,3.376,34.633,5.507,40.394
		c0.394-0.424,1.203-1.283,1.607-1.718c0.643-2.523,1.042-3.358,1.213-9.429c1.354-0.334,3.032-0.051,4.244-0.98
		c2.229-3.738,3.808-36.136,6.901-55.876h0.788c0.213,2.892,4.023,29.077,5.821,32.956c3.915-16.558,3.178-46.189,5.498-58.219
		l0.566-0.01c0.283,0.667,0.849,2.001,1.132,2.668c0.082,1.001,1.53,13.806,2.041,15.32c0.354,4.042-0.323,8.216,1,12.127
		c0.526,4.699-0.485,9.57,1.011,14.148c0.344,4.517,0.051,9.055,0.424,13.572c2.021,6.084-0.445,12.673,1.597,18.757
		c0.485,5.861-0.071,11.753,0.435,17.615c1.263,3.911,0.627,8.075,0.99,12.117c1.324,3.931,0.738,8.145,0.809,12.218
		c-13.72-0.359-80.246-0.197-81.252-0.182c1.071-1.607,2.173-3.214,3.325-4.79c0.004-1,5.846-55.701,9.843-64.607
		c1.981,1.263,2.628,3.345,2.678,5.619c0.404,0,1.192,0,1.597,0c3.069-15.915,7.322-71.118,7.376-72.127
		C2493.384,158.857,2493.99,157.523,2494.294,156.856z"/>
	
		<linearGradient id="SVGID_18_" gradientUnits="userSpaceOnUse" x1="998.258" y1="306.4235" x2="1039.7791" y2="306.4235" gradientTransform="matrix(1 0 0 -1 0 534)">
		<stop  offset="0" style="stop-color:#66C7FF"/>
		<stop  offset="0.0296" style="stop-color:#63BEF9"/>
		<stop  offset="0.1097" style="stop-color:#5EABEC"/>
		<stop  offset="0.1921" style="stop-color:#5AA0E4"/>
		<stop  offset="0.28" style="stop-color:#599CE1"/>
		<stop  offset="0.67" style="stop-color:#7524B3"/>
		<stop  offset="0.89" style="stop-color:#7E2161"/>
		<stop  offset="1" style="stop-color:#923B2E"/>
	</linearGradient>
	<path class="st17" d="M1026.807,161.252c0.424-0.445,1.253-1.334,1.678-1.779c1.858,7.32,7.328,60.82,8.378,75.42
		c1.93,9.257,0.04,18.888,1.021,28.287c1.617,5.245,0.333,10.803,1,16.17c1.566,5.174,0.546,10.652,0.798,15.967
		c-13.815-0.101-27.62,0.819-41.424,0.061c0.071-14.173,2.96-37.483,3.122-38.889c0.596-1.071,1.193-2.142,1.809-3.204
		c0.061-2.456,0.111-4.932,0.899-7.276c0.546-6.539-0.101-13.107,0.435-19.636c1.627-5.245,0.333-10.803,1.011-16.17
		c1.122-3.295,0.808-6.822,0.859-10.237c0.323-0.677,0.98-2.021,1.304-2.698l0.404,0.01c1.556,8.779,3.316,19.539,3.284,28.307
		l0.758-0.01c0.263-1.577,0.546-3.153,0.869-4.719c0.222-0.414,0.647-1.253,0.859-1.667c3.181-18.514,2.856-31.45,6.872-51.733
		c1.152,1.475,2.284,2.961,3.375,4.497c0.333,0.02,1.011,0.081,1.354,0.101C1025.66,164.224,1025.596,166.689,1026.807,161.252z"/>
	
		<linearGradient id="SVGID_19_" gradientUnits="userSpaceOnUse" x1="1234.7122" y1="305.3634" x2="1343.9429" y2="305.3634" gradientTransform="matrix(1 0 0 -1 0 534)">
		<stop  offset="0" style="stop-color:#00AB66"/>
		<stop  offset="1" style="stop-color:#EC5C2F"/>
	</linearGradient>
	<path class="st18" d="M1299.688,161.878l0.394,0.03c0.323,0.677,0.97,2.021,1.294,2.688c0.404,5.76-0.808,11.693,0.849,17.312
		c0.536,4.699-0.485,9.57,1.011,14.148c0.758,6.033-0.728,12.279,1,18.191c0.818,6.367-0.758,12.956,1.021,19.201
		c0.536,6.862-0.121,13.764,0.424,20.636c1.102,3.183,0.819,6.589,0.819,9.894l0.99,0.01c0.303-5.649-0.818-11.47,0.798-16.968
		c0.424-5.194-0.01-10.409,0.424-15.604c1.566-4.901,0.394-10.116,1.011-15.149c1.182-3.588,0.707-7.408,1.01-11.117
		c0.526-1.91,0.778-3.881,1.031-5.851h0.647c0.049,1.238,1.195,13.684,1.94,15.957c5.121,55.347,1.702,38.724,5.548,61.495
		c2.567-3.78,1.112-8.449,2.526-12.562c0.152-2.766,0.663-55.503,2.456-70.156c0.94-2.638,0.829-5.467,0.859-8.226
		c0.465,0.435,1.405,1.294,1.87,1.728c0.054,4.535,1.806,15.937,2.183,21.293c0.586,1.011,1.172,2.021,1.779,3.042
		c2.903-15.006,2.156-19.421,2.183-23.052c0.465,0.435,1.415,1.283,1.89,1.718c0,0,2.084,18.363,4.397,50.408
		c1.556,4.911,0.394,10.126,1,15.159c1.698,5.578,0.293,11.48,1.021,17.18c2.173,7.195-0.687,14.957,1.88,22.102
		c0,0-105.652,0.023-109.225,0c-0.218-13.089,5.9-43.051,6.053-44.051c1.395-2.102,3.012-4.052,4.669-5.963
		c0.374-2.223,1.779-3.658,3.992-4.083c2.606,9.399-0.462-5.078,7.61,46.953l0.616-0.01c2.942-11.071,2.009-18.482,6.498-44.799
		c0.455,0.424,1.364,1.283,1.819,1.708c0.676,6.559,2.429,11.314,3.385,23.537c1.415-1.011,2.547-2.345,3.315-3.921
		c5.767-40.764,6.935-63.954,7.538-69.003c1.192-1.698,2.193-4.659,4.77-2.87c0.475,0.121,1.425,0.364,1.91,0.485
		c2.998-6.676,3.385-12.303,3.638-14.32c1.223,0.061,2.466,0.111,3.719,0.172C1297.782,172.611,1296.915,169.044,1299.688,161.878z"
		/>
	
		<linearGradient id="SVGID_20_" gradientUnits="userSpaceOnUse" x1="1091.9611" y1="304.8124" x2="1117.681" y2="304.8124" gradientTransform="matrix(1 0 0 -1 0 534)">
		<stop  offset="0.05" style="stop-color:#00AB4E"/>
		<stop  offset="0.5" style="stop-color:#BD268F"/>
		<stop  offset="1" style="stop-color:#F26922"/>
	</linearGradient>
	<path class="st19" d="M1102.359,162.919c0.424,0,1.273,0,1.698,0c3.773,14.52,10.188,77.603,10.188,77.603
		c0.576,7.539-0.141,15.119,0.445,22.658c0.499,1.533,2.931,31.267,2.991,32.269c-8.58,0.051-17.15-0.192-25.72-0.04
		C1092.649,289.744,1102.359,162.919,1102.359,162.919z"/>
	
		<linearGradient id="SVGID_21_" gradientUnits="userSpaceOnUse" x1="2255.196" y1="303.82" x2="2284.0691" y2="303.82" gradientTransform="matrix(1 0 0 -1 0 534)">
		<stop  offset="0.0056" style="stop-color:#00AD8E"/>
		<stop  offset="0.5" style="stop-color:#DA2128"/>
		<stop  offset="1" style="stop-color:#F26922"/>
	</linearGradient>
	<path class="st20" d="M2274.903,164.94l0.384-0.01c0.323,0.677,0.96,2.021,1.283,2.698c0.007,1,5.908,120.932,7.499,127.802
		c-9.631-0.192-19.252-0.04-28.873-0.091c0.576-1.112,1.162-2.243,1.728-3.375c8.129-58.004,1.211-14.652,7.812-92.874
		c0.859-2.638,0.859-5.427,0.97-8.176c0.465-1.445,0.94-2.89,1.445-4.335c1.051,1.142,2.082,2.314,3.113,3.527
		c0.293,0.03,0.889,0.101,1.182,0.141C2273.934,179.208,2271.188,177.772,2274.903,164.94z"/>
	
		<linearGradient id="SVGID_22_" gradientUnits="userSpaceOnUse" x1="110.9147" y1="303.5002" x2="144.387" y2="303.5002" gradientTransform="matrix(1 0 0 -1 0 534)">
		<stop  offset="0" style="stop-color:#FFF33B"/>
		<stop  offset="0.0645" style="stop-color:#EBE054"/>
		<stop  offset="0.1334" style="stop-color:#DDD267"/>
		<stop  offset="0.2044" style="stop-color:#D4CA72"/>
		<stop  offset="0.28" style="stop-color:#D1C776"/>
		<stop  offset="0.67" style="stop-color:#9FA391"/>
		<stop  offset="0.89" style="stop-color:#6A7FA4"/>
		<stop  offset="1" style="stop-color:#3367B1"/>
	</linearGradient>
	<path class="st21" d="M128.004,169.427c1.122-1.425,2.294-2.799,3.578-4.073c4.709,14.851,3.045,39.332,5.851,75.592
		c0.106,0.324,4.874,38.972,5.105,42.434c1.496,3.881-0.243,8.327,1.849,12.016c-11.167,0.081-22.314,0.536-33.471-0.03
		c-0.045-15.139,1.109-1.723,1.051-20.656c0.788-1.314,1.556-2.628,2.334-3.931c1.132,1.364,2.284,2.729,3.507,4.032
		c0.768-6.215-0.748-12.622,1.011-18.696c0.728-5.71-0.677-11.612,1.011-17.18c0.394-4.861,0.03-9.732,0.424-14.583
		c1.395-4.245,0.556-8.772,1-13.138c1.223-3.577,0.718-7.408,1.021-11.106c1.546-4.942,0.485-10.187,0.91-15.26
		c4.056-11.908,1.504-7.383,4.922-13.481C128.084,170.883,128.034,169.913,128.004,169.427z"/>
	
		<linearGradient id="SVGID_23_" gradientUnits="userSpaceOnUse" x1="591.674" y1="300.1273" x2="629.41" y2="300.1273" gradientTransform="matrix(1 0 0 -1 0 534)">
		<stop  offset="0" style="stop-color:#F9D837"/>
		<stop  offset="0.5337" style="stop-color:#552F7F"/>
		<stop  offset="1" style="stop-color:#F26522"/>
	</linearGradient>
	<path class="st22" d="M615.515,172.015l0.394-0.02c0.303,0.667,0.889,2.021,1.182,2.688c0.101,2.436,0.172,4.901,0.96,7.236
		c2.015,25.433,0.848,47.427,3.466,54.117c5.638,3.234,7.893,56.064,7.893,59.321c-12.572,0.627-25.164,0.394-37.736,0.061
		c7.282-19.299,4.266-72.356,9.509-94.511c0.899,0.93,1.809,1.87,2.719,2.809c1.327,4.827,0.532,1.571,2.527,8.722l0.718,0.01
		c0.01-0.606,0.02-1.829,0.03-2.446c1.253-2.405,2.456-4.982,4.962-6.336C612.233,196.915,613.379,179.575,615.515,172.015z"/>
	
		<linearGradient id="SVGID_24_" gradientUnits="userSpaceOnUse" x1="35.9994" y1="299.4118" x2="69.621" y2="299.4118" gradientTransform="matrix(1 0 0 -1 0 534)">
		<stop  offset="0.05" style="stop-color:#007DFF"/>
		<stop  offset="0.5337" style="stop-color:#A80E38"/>
		<stop  offset="1" style="stop-color:#A9913E"/>
	</linearGradient>
	<path class="st23" d="M46.57,177.31c0.91-1.415,1.981-2.719,3.163-3.901c7.37,23.931,19.737,112.112,19.888,121.968
		c-11.187-0.172-22.385,0.758-33.582,0.222c0.121-11.612-0.283-23.244,0.222-34.845C40.67,247.536,46.458,178.31,46.57,177.31z"/>
	
		<linearGradient id="SVGID_25_" gradientUnits="userSpaceOnUse" x1="1804.5741" y1="296.7555" x2="1880.5499" y2="296.7555" gradientTransform="matrix(1 0 0 -1 0 534)">
		<stop  offset="0" style="stop-color:#4052D2"/>
		<stop  offset="0.5169" style="stop-color:#00C1FF"/>
		<stop  offset="0.95" style="stop-color:#7D00AA"/>
	</linearGradient>
	<path class="st24" d="M1867.613,179.089h0.404c0.323,0.667,0.98,2.011,1.314,2.688c0.071,1,1.657,62.302,5.712,79.797
		c6.699,17.635,5.371,28.815,5.447,33.826c-0.32,0.001-75.916-0.02-75.916-0.02c3.16-7.535,1.309-7.243,2.719-14.936
		c1.279-5.808,2.061-11.923,2.122-12.188c4.048-37.993,8.468-62.506,8.468-62.506c1-1.405,2.112-2.749,3.325-4.002
		c0.384,0.819,1.172,2.446,1.556,3.254c0.323,1.776,0.121,1.452,1.455,4.791c1.364,1.021,2.496,2.334,3.274,3.891
		c0.866,8.082,0.666,2.783,1.567,11.895c0.627,0,1.9,0,2.526,0c0.718,1.577,1.475,3.143,2.274,4.709
		c0.177,1.418,0.349,2.684,1.617,7.721c0,0.001,1.678,17.887,1.678,17.888h0.899c0.058-1.002,0.167-43.461,4.314-54.603l0.424,0.02
		c4.256,9.69,4.073,15.61,5.346,22.759c0.778,1.031,1.627,2.072,2.476,3.103c0.355-1.174,3.439-12.416,3.708-14.129
		c0.94-1.758,1.88-3.517,2.85-5.265c0.051-0.92,0.121-1.839,0.222-2.759c0.293-0.748,0.879-2.254,1.172-3.001
		c1.253,1.718,2.577,3.406,4.063,4.942c0.394-0.808,1.182-2.425,1.577-3.234C1864.411,200.222,1866.204,186.056,1867.613,179.089z"
		/>
	
		<linearGradient id="SVGID_26_" gradientUnits="userSpaceOnUse" x1="2297.7859" y1="291.9115" x2="2318.145" y2="291.9115" gradientTransform="matrix(1 0 0 -1 0 534)">
		<stop  offset="0" style="stop-color:#7F440D"/>
		<stop  offset="1" style="stop-color:#00CFFF"/>
	</linearGradient>
	<path class="st25" d="M2306.181,190.589c0.414-0.455,1.253-1.364,1.667-1.819c5.222,16.096,10.285,102.929,10.297,106.617
		c-6.761-0.04-13.522-0.071-20.283,0.02c-0.02-3.679-0.414-7.468,0.809-11.015c0.273-3.709-0.192-7.529,1.01-11.117
		c0.354-4.042-0.293-8.206,1.011-12.117c0.263-3.84,0.131-7.701,0.424-11.541c1.606-4.923,3.914-52.572,4.043-53.572
		C2305.625,194.258,2305.908,192.419,2306.181,190.589z"/>
	
		<linearGradient id="SVGID_27_" gradientUnits="userSpaceOnUse" x1="1131.3239" y1="289.5411" x2="1186.5128" y2="289.5411" gradientTransform="matrix(1 0 0 -1 0 534)">
		<stop  offset="0.0056" style="stop-color:#00AD8E"/>
		<stop  offset="0.5" style="stop-color:#DA2128"/>
		<stop  offset="1" style="stop-color:#F26922"/>
	</linearGradient>
	<path class="st26" d="M1149.1,193.207h0.455c3.199,8.236,2.038,19.905,7.64,35.815c2.889,7.524,0.323,6.12,4.568,19.454
		c0.071,0.485,0.192,1.445,0.253,1.92c0.414,0.445,1.243,1.324,1.647,1.769c0.708-1.304,1.425-2.617,2.153-3.921
		c1.618-8.521,0.748-1.341,2.396-9.954c0.546-1.041,1.112-2.082,1.688-3.113c0.365,3.515,4.194,26.318,4.194,39.939l1.01-0.04
		c0-3.77-0.081-7.549,0.212-11.309c1.819-5.093-0.243-10.662,1.597-15.745c0.794-10.594-1.048,0.059,2.355-27.953
		c0.616,1.031,1.253,2.052,1.9,3.082c0.071,5.932-0.212,11.874,0.212,17.807c1.475,4.568,0.465,9.439,1,14.138
		c1.577,4.901,0.404,10.126,1.021,15.159c1.486,4.568,0.475,9.439,1,14.138c0.92,2.648,0.859,5.477,0.94,8.236
		c0.293,0.677,0.879,2.011,1.172,2.678c-18.393,0.495-36.796,0.546-55.189,0.091c1.516-7.729,0.872-1.88,1.355-8.903
		c1.314-0.869,2.648-1.728,3.982-2.587c0.22-4.136,1.401-10.845,1.859-12.633c2.633-26.482-3.727,7.99,7.671-57.078
		C1147.59,208.252,1145.773,202.112,1149.1,193.207z"/>
	
		<linearGradient id="SVGID_28_" gradientUnits="userSpaceOnUse" x1="2339.9326" y1="286.7805" x2="2423.4685" y2="286.7805" gradientTransform="matrix(1 0 0 -1 0 534)">
		<stop  offset="0" style="stop-color:#B5C634"/>
		<stop  offset="1" style="stop-color:#A92E91"/>
	</linearGradient>
	<path class="st27" d="M2362.199,198.745c0.798,1.021,1.546,2.052,2.385,3.092c0.042,1.305,3.103,17.017,3.304,18.019
		c0.374-0.424,1.122-1.273,1.486-1.698c1.229-4.407,0.871-1.871,1.303-5.144c0.829-1.385,1.708-2.759,2.607-4.123
		c0.576,1.294,1.243,2.597,1.859,3.911c6.436,40.442,8.711,63.253,9.804,79.16c6.52-11.726,8.711-64.848,11.248-76.784
		c0.404,0.424,1.223,1.263,1.637,1.688c0.054,6.736,3.154,23.441,3.122,34.361c0.465-0.435,1.405-1.294,1.88-1.718
		c0.046-1,3.864-41.883,5.487-49.5c0.384,0.424,1.172,1.263,1.566,1.688c0.051,1.002,1.364,13.756,1.96,15.583
		c0.87,10.598-1.274,14.406,2.83,36.251c7.471,27.585,4.629,20.781,8.792,41.878c-66.481-0.331-71.472,0.745-83.536,0.04
		c0.333-0.707,1-2.132,1.334-2.84c0.072-1.001,0.78-44.888,2.881-50.65c0.793-9.456-1.244-10.213,3.375-37.948
		c0.424,0.424,1.263,1.273,1.677,1.698c1.393,8.378,2.429,8.633,3.295,15.23c0.596,1.041,1.223,2.072,1.87,3.103
		c0.368-9.569,0.978-0.269,1.102-16.655c0.505,0,1.506,0,2.011,0c0.01,0.859,0.02,2.567,0.03,3.426
		c0.455-0.435,1.364-1.283,1.819-1.718C2360.016,202.888,2360.363,202.663,2362.199,198.745z"/>
	
		<linearGradient id="SVGID_29_" gradientUnits="userSpaceOnUse" x1="1630.8042" y1="284.2905" x2="1650.1622" y2="284.2905" gradientTransform="matrix(1 0 0 -1 0 534)">
		<stop  offset="0" style="stop-color:#FFF33B"/>
		<stop  offset="0.0401" style="stop-color:#FEE72E"/>
		<stop  offset="0.1171" style="stop-color:#FED51B"/>
		<stop  offset="0.1964" style="stop-color:#FDCA10"/>
		<stop  offset="0.2809" style="stop-color:#FDC70C"/>
		<stop  offset="0.6685" style="stop-color:#F3903F"/>
		<stop  offset="0.8876" style="stop-color:#ED683C"/>
		<stop  offset="1" style="stop-color:#E93E3A"/>
	</linearGradient>
	<path class="st28" d="M1636.166,205.698c0.414-0.424,1.253-1.263,1.667-1.688c11.643,76.928,4.352,11.599,10.429,74.33
		c2.163,5.488-0.748,11.753,1.9,17.069c-6.438-0.131-12.865-0.152-19.292-0.03c-0.072-23.08-0.288-24.028,0.809-27.144
		c0.455-5.528-0.051-11.076,0.424-16.594c1.971-5.76-0.384-12.016,1.597-17.756c0.313-4.184,0.101-8.378,0.435-12.562
		c1.051-3.264,0.768-6.731,1.01-10.106C1635.611,209.407,1635.894,207.547,1636.166,205.698z"/>
	
		<linearGradient id="SVGID_30_" gradientUnits="userSpaceOnUse" x1="1586.0519" y1="276.2555" x2="1614.8939" y2="276.2555" gradientTransform="matrix(1 0 0 -1 0 534)">
		<stop  offset="0.05" style="stop-color:#00AB4E"/>
		<stop  offset="0.5" style="stop-color:#BD268F"/>
		<stop  offset="1" style="stop-color:#F26922"/>
	</linearGradient>
	<path class="st29" d="M1603.645,220.079c0.465,0.465,1.374,1.374,1.829,1.839c0,0.001,5.478,50.479,5.478,50.48
		c0.265,1.006,3.061,10.313,3.942,23.012c-9.621-0.071-19.232-0.071-28.842-0.091c0.333-0.677,0.99-2.021,1.314-2.698
		c0.427-6.972-1.395-18.111,3.386-34.239c1.172,0.879,2.344,1.779,3.537,2.688c1.061-1.526,2.122-3.072,3.143-4.639
		c0.426-9.893,2.319-6.983,4.357-29.136C1602.392,224.889,1602.918,222.464,1603.645,220.079z"/>
	
		<linearGradient id="SVGID_31_" gradientUnits="userSpaceOnUse" x1="1186.9342" y1="272.649" x2="1209.8042" y2="272.649" gradientTransform="matrix(1 0 0 -1 0 534)">
		<stop  offset="0.05" style="stop-color:#7C00AB"/>
		<stop  offset="0.5" style="stop-color:#BD9C26"/>
		<stop  offset="1" style="stop-color:#63F222"/>
	</linearGradient>
	<path class="st30" d="M1194.597,227.304c0.394,0.424,1.182,1.263,1.567,1.688c0,0,4.156,36.199,4.324,40.05l0.566-0.01
		c0.354-1.253,0.738-2.506,1.142-3.749c0.168-4.53,0.767-12.083,2.931-16.099c3.961,26.901,2.242,35.49,4.677,46.214
		c-7.63-0.071-15.25-0.061-22.87-0.091c0.293-0.667,0.879-2.011,1.172-2.678c0.102-5.634,0.989-9.031,2.375-27.852
		c1.779-6.589,0.152-13.512,1.011-20.222C1192.403,241.479,1192.574,232.981,1194.597,227.304z"/>
	
		<linearGradient id="SVGID_32_" gradientUnits="userSpaceOnUse" x1="303.959" y1="268.283" x2="314.388" y2="268.283" gradientTransform="matrix(1 0 0 -1 0 534)">
		<stop  offset="0" style="stop-color:#F68B1F"/>
		<stop  offset="0.4888" style="stop-color:#0080C8"/>
		<stop  offset="0.9944" style="stop-color:#F26122"/>
	</linearGradient>
	<path class="st31" d="M307.263,236.046c4.448,7.341,2.102,34.652,7.125,59.342c-3.476-0.061-6.953-0.071-10.429,0
		C304.014,294.386,304.783,256.144,307.263,236.046z"/>
	
		<linearGradient id="SVGID_33_" gradientUnits="userSpaceOnUse" x1="566.471" y1="257.7115" x2="578.8811" y2="257.7115" gradientTransform="matrix(1 0 0 -1 0 534)">
		<stop  offset="0" style="stop-color:#007DFF"/>
		<stop  offset="0.5" style="stop-color:#28F584"/>
		<stop  offset="1" style="stop-color:#5845BE"/>
	</linearGradient>
	<path class="st32" d="M574.363,257.168c1.533,3.293,4.54,34.558,4.518,38.241c-4.143-0.091-8.277-0.091-12.41,0
		c0.079-0.682,3.75-26.329,3.902-27.084C571.503,262.612,571.792,259.343,574.363,257.168z"/>
	
		<linearGradient id="SVGID_34_" gradientUnits="userSpaceOnUse" x1="167.5139" y1="256.4745" x2="175.734" y2="256.4745" gradientTransform="matrix(1 0 0 -1 0 534)">
		<stop  offset="0" style="stop-color:#F68B1F"/>
		<stop  offset="0.4888" style="stop-color:#0080C8"/>
		<stop  offset="0.9944" style="stop-color:#F26122"/>
	</linearGradient>
	<path class="st33" d="M170.873,259.653c0.414,0.424,1.233,1.273,1.647,1.698c0.118,2.348,3.108,28.456,3.214,34.047
		c-2.739-0.071-5.477-0.101-8.206-0.03C167.589,294.191,166.875,270.078,170.873,259.653z"/>
	
		<linearGradient id="SVGID_35_" gradientUnits="userSpaceOnUse" x1="426.1796" y1="255.499" x2="434.446" y2="255.499" gradientTransform="matrix(1 0 0 -1 0 534)">
		<stop  offset="0" style="stop-color:#00A995"/>
		<stop  offset="0.5" style="stop-color:#006EB9"/>
		<stop  offset="1" style="stop-color:#00AA4F"/>
	</linearGradient>
	<path class="st34" d="M429.363,263.332c0.455-0.424,1.364-1.283,1.809-1.708c0.391,2.126,3.241,32.014,3.274,33.754
		c-2.759-0.081-5.508-0.081-8.257-0.01c0-3.001-0.162-6.084,0.859-8.964C428.654,262.92,428.556,272.811,429.363,263.332z"/>
	
		<linearGradient id="SVGID_36_" gradientUnits="userSpaceOnUse" x1="86.357" y1="249.8145" x2="103.183" y2="249.8145" gradientTransform="matrix(1 0 0 -1 0 534)">
		<stop  offset="0" style="stop-color:#264BA0"/>
		<stop  offset="1" style="stop-color:#F2981F"/>
	</linearGradient>
	<path class="st35" d="M95.23,273.084c0.576-0.03,1.718-0.091,2.294-0.121c0.748,1.243,1.496,2.486,2.244,3.739
		c0.153,1.36,2.795,16.422,3.415,18.676c-5.609-0.02-11.218-0.101-16.826,0.03c0.283-0.697,0.839-2.072,1.122-2.769
		c0.583-5.609,0.899-7.771,3.102-13.138c0.051-0.485,0.141-1.455,0.192-1.94C92.259,276.076,93.755,274.58,95.23,273.084z"/>
	
		<linearGradient id="SVGID_37_" gradientUnits="userSpaceOnUse" x1="1498.312" y1="250.103" x2="1506.5903" y2="250.103" gradientTransform="matrix(1 0 0 -1 0 534)">
		<stop  offset="0" style="stop-color:#FFF33B"/>
		<stop  offset="0.0662" style="stop-color:#F6D955"/>
		<stop  offset="0.1346" style="stop-color:#EFC768"/>
		<stop  offset="0.205" style="stop-color:#EBBC73"/>
		<stop  offset="0.28" style="stop-color:#EAB877"/>
		<stop  offset="0.67" style="stop-color:#DA9087"/>
		<stop  offset="0.89" style="stop-color:#CD6C8F"/>
		<stop  offset="1" style="stop-color:#BE2F92"/>
	</linearGradient>
	<path class="st36" d="M1504.183,272.417c0.351,2.173,2.467,11.851,2.406,22.859c-2.769,0.01-5.528,0.03-8.277,0.101
		C1498.547,291.224,1500.58,274.808,1504.183,272.417z"/>
	
		<linearGradient id="SVGID_38_" gradientUnits="userSpaceOnUse" x1="1768.2721" y1="248.8595" x2="1782.6531" y2="248.8595" gradientTransform="matrix(1 0 0 -1 0 534)">
		<stop  offset="0" style="stop-color:#FBD437"/>
		<stop  offset="0.5056" style="stop-color:#ED1C24"/>
		<stop  offset="1" style="stop-color:#F58220"/>
	</linearGradient>
	<path class="st37" d="M1774.254,277.329c1.193-0.869,2.375-1.839,3.77-2.466c0.667,1.142,1.294,2.334,1.9,3.537
		c0.231,1.156,2.199,9.368,2.729,16.988c-4.8-0.061-9.601-0.091-14.381,0.03c1.36-3.17,0.927-5.435,2.274-9.591
		c1.374-2.031,2.597-4.154,3.85-6.276C1774.355,278.996,1774.295,277.885,1774.254,277.329z"/>
	
		<linearGradient id="SVGID_39_" gradientUnits="userSpaceOnUse" x1="1510.5656" y1="245.7465" x2="1513.6869" y2="245.7465" gradientTransform="matrix(1 0 0 -1 0 534)">
		<stop  offset="0" style="stop-color:#37FBF7"/>
		<stop  offset="0.5056" style="stop-color:#EDE71C"/>
		<stop  offset="1" style="stop-color:#2DF520"/>
	</linearGradient>
	<path class="st38" d="M1511.752,281.139l0.798,0.02c0.505,8.808,1.203,2.403,1.132,14.209c-0.768-0.01-2.304-0.051-3.072-0.061
		C1510.507,286.222,1510.477,289.725,1511.752,281.139z"/>
	
		<linearGradient id="SVGID_40_" gradientUnits="userSpaceOnUse" x1="2451.1821" y1="245.5445" x2="2457.7312" y2="245.5445" gradientTransform="matrix(1 0 0 -1 0 534)">
		<stop  offset="0" style="stop-color:#DA2128"/>
		<stop  offset="1" style="stop-color:#00A84F"/>
	</linearGradient>
	<path class="st39" d="M2454.81,281.523c2.239,4.759,2.508,8.633,2.921,13.865c-2.213-0.051-4.396-0.081-6.549-0.081
		C2452.286,292.506,2454.356,284.092,2454.81,281.523z"/>
	
		<linearGradient id="SVGID_41_" gradientUnits="userSpaceOnUse" x1="1366.873" y1="245.059" x2="1373.462" y2="245.059" gradientTransform="matrix(1 0 0 -1 0 534)">
		<stop  offset="0" style="stop-color:#F68B1F"/>
		<stop  offset="0.4888" style="stop-color:#0080C8"/>
		<stop  offset="0.9944" style="stop-color:#F26122"/>
	</linearGradient>
	<path class="st40" d="M1370.794,282.513c0.754,4.941,1.538,8.436,2.668,12.856c-2.213-0.051-4.406-0.051-6.589,0
		C1367.91,286.246,1368.584,283.971,1370.794,282.513z"/>
	
		<linearGradient id="SVGID_42_" gradientUnits="userSpaceOnUse" x1="2037.889" y1="244.539" x2="2045.5291" y2="244.539" gradientTransform="matrix(1 0 0 -1 0 534)">
		<stop  offset="0.05" style="stop-color:#3948CE"/>
		<stop  offset="0.5337" style="stop-color:#7F440D"/>
		<stop  offset="1" style="stop-color:#DAD521"/>
	</linearGradient>
	<path class="st41" d="M2040.657,283.544c1.243,1.102,2.314,2.405,3.103,3.911c0.497,3.582,0.993,5.154,1.769,7.923
		c-2.567-0.071-5.114-0.081-7.64-0.01C2038.681,290.161,2038.103,294.26,2040.657,283.544z"/>
	
		<linearGradient id="SVGID_43_" gradientUnits="userSpaceOnUse" x1="2438.0139" y1="244.438" x2="2448.7869" y2="244.438" gradientTransform="matrix(1 0 0 -1 0 534)">
		<stop  offset="0" style="stop-color:#9300AB"/>
		<stop  offset="1" style="stop-color:#94EC2F"/>
	</linearGradient>
	<path class="st42" d="M2443.814,283.726c1.081,2.415,2.243,4.821,3.497,7.175c0.071,0.435,0.212,1.314,0.273,1.758
		c0.303,0.657,0.899,1.981,1.203,2.638c-3.608-0.01-7.196-0.02-10.773,0.101c0.283-0.687,0.859-2.072,1.152-2.759
		C2439.591,288.369,2439.53,284.905,2443.814,283.726z"/>
	
		<linearGradient id="SVGID_44_" gradientUnits="userSpaceOnUse" x1="1899.376" y1="242.3715" x2="1905.9349" y2="242.3715" gradientTransform="matrix(1 0 0 -1 0 534)">
		<stop  offset="0" style="stop-color:#FFF33B"/>
		<stop  offset="0.0662" style="stop-color:#F6D955"/>
		<stop  offset="0.1346" style="stop-color:#EFC768"/>
		<stop  offset="0.205" style="stop-color:#EBBC73"/>
		<stop  offset="0.28" style="stop-color:#EAB877"/>
		<stop  offset="0.67" style="stop-color:#DA9087"/>
		<stop  offset="0.89" style="stop-color:#CD6C8F"/>
		<stop  offset="1" style="stop-color:#BE2F92"/>
	</linearGradient>
	<path class="st43" d="M1900.771,289.678c0.414-0.455,1.263-1.344,1.678-1.789c2.403,4.843,3.486,7.479,3.486,7.479
		c-2.203-0.061-4.396-0.061-6.559-0.01C1900.594,290.74,1900.274,293.002,1900.771,289.678z"/>
	
		<linearGradient id="SVGID_45_" gradientUnits="userSpaceOnUse" x1="711.6227" y1="239.1227" x2="711.8754" y2="239.1227" gradientTransform="matrix(1 0 0 -1 0 534)">
		<stop  offset="0" style="stop-color:#FBD437"/>
		<stop  offset="0.5056" style="stop-color:#ED1C24"/>
		<stop  offset="1" style="stop-color:#F58220"/>
	</linearGradient>
	<path class="st44" d="M711.875,294.883h-0.252C711.705,294.867,711.793,294.869,711.875,294.883z"/>
	
		<linearGradient id="SVGID_46_" gradientUnits="userSpaceOnUse" x1="59.283" y1="208.0855" x2="116.0689" y2="208.0855" gradientTransform="matrix(1 0 0 -1 0 534)">
		<stop  offset="0" style="stop-color:#B5C634"/>
		<stop  offset="1" style="stop-color:#A92E91"/>
	</linearGradient>
	<path class="st45" d="M59.283,296.257c0,0,51.801-0.159,56.745-0.02c0.01,3.335,0.303,6.781-0.839,9.995
		c-0.611,8.146-1.932,44.01-7.71,49.417c-3.095-7.433-2.397-8.049-5.923-21.941c-1.455,0-2.911,0-4.366,0.01
		c-1.595-3.385-2.227-3.691-5.66-16.805c-0.404-0.445-1.213-1.344-1.617-1.789c-2.681,6.84-6.705,18.788-7.326,25.063
		c-0.637,1.071-1.263,2.132-1.9,3.204c-0.02,0.465-0.061,1.385-0.081,1.839c-0.849,1.405-1.678,2.799-2.526,4.204
		c-6.033-1.806-3.428-7.39-9.935-26.164c-0.95,0.536-1.9,1.071-2.84,1.607c-0.455-0.404-1.364-1.233-1.819-1.647
		C63.362,322.225,59.482,306.582,59.283,296.257z"/>
	
		<linearGradient id="SVGID_47_" gradientUnits="userSpaceOnUse" x1="136.21" y1="160.7581" x2="189.762" y2="160.7581" gradientTransform="matrix(1 0 0 -1 0 534)">
		<stop  offset="0" style="stop-color:#007DFF"/>
		<stop  offset="0.5" style="stop-color:#28F584"/>
		<stop  offset="1" style="stop-color:#5845BE"/>
	</linearGradient>
	<path class="st46" d="M136.21,296.267c1.002,0.016,45.92-0.457,53.552-0.051c0,16.321-3.897,36.285-4.114,37.916
		c-0.637,1.081-1.283,2.163-1.92,3.254c-0.056,1-0.714,42.316-4.416,61.687c-1.662-6.357,0.56,0.25-11.046-35.4
		c-0.364,0.445-1.112,1.314-1.475,1.748c-2.169,10.22-7.909,78.553-10.338,85.012c-0.505-0.475-1.516-1.425-2.021-1.9
		c-0.49-8.753-2.111-13.645-2.284-29.115c0-0.001-6.69-62.596-7.034-67.73C139.688,331.757,137.85,338.914,136.21,296.267z"/>
	
		<linearGradient id="SVGID_48_" gradientUnits="userSpaceOnUse" x1="216.784" y1="148.078" x2="326.221" y2="148.078" gradientTransform="matrix(1 0 0 -1 0 534)">
		<stop  offset="0" style="stop-color:#264BA0"/>
		<stop  offset="1" style="stop-color:#F2981F"/>
	</linearGradient>
	<path class="st47" d="M216.784,296.237c81.212,0,109.437-0.253,109.437-0.253c-4.799,83-6.445,106.952-11.834,110.144
		c-4.803-28.433-4.257-44.563-4.577-47.356c-7.413-26.944-6.649-24.625-7.044-30.115h-0.819
		c-3.585,67.027,3.523,21.603-8.761,70.448c-5.106,37.208-2.498,59.252-6.772,76.755c-5.152-11.053-4.081-132.472-9.003-156.3
		h-0.445c-1.232,6.13-0.986,3.444-1.354,8.711c-0.465,0.455-1.405,1.354-1.88,1.809c-2.495-10.177-2.707-19.878-3.093-31.743h-0.96
		c-0.01,2.981,0.121,6.033-0.869,8.893c-0.647,5.366,0.627,10.925-1,16.17c-0.92,9.409,0.889,19.019-0.97,28.307
		c-0.875,13.18-0.85,4.445-1.324,13.956c-0.465,0.445-1.385,1.354-1.849,1.799c-3.981-16.068-5.057-49.404-8.519-62.05l-0.596-0.01
		c-3.987,20.691-2.792,35.674-8.418,52.914c-0.445-0.445-1.314-1.324-1.758-1.769c-0.23-6.205,0.26-2.885-2.547-13.3
		c-4.042,2.587-5.205,7.468-7.529,11.379c-0.022,8.243-4.424,47.504-6.214,59.322c-0.465-0.445-1.385-1.334-1.849-1.779
		C221.212,377.247,220.326,324.106,216.784,296.237z"/>
	
		<linearGradient id="SVGID_49_" gradientUnits="userSpaceOnUse" x1="365.595" y1="151.0285" x2="394.266" y2="151.0285" gradientTransform="matrix(1 0 0 -1 0 534)">
		<stop  offset="0" style="stop-color:#FFF200"/>
		<stop  offset="0.5" style="stop-color:#F5AE28"/>
		<stop  offset="1" style="stop-color:#6FBE45"/>
	</linearGradient>
	<path class="st48" d="M365.595,296.126c9.55,0.253,19.11,0.131,28.671,0.131c-0.394,1.273-0.798,2.557-1.203,3.82
		c-0.23,8.743-1.712,14.87-2.284,22.9c-7.905,14.957-6.726,117.594-9.762,126.76c-0.184,3.216,0.038,17.819-4.042,20.08
		c-0.212-4.406-0.839-8.752-1.667-13.067C368.734,409.875,365.653,297.126,365.595,296.126z"/>
	
		<linearGradient id="SVGID_50_" gradientUnits="userSpaceOnUse" x1="401.724" y1="150.0709" x2="464.654" y2="150.0709" gradientTransform="matrix(1 0 0 -1 0 534)">
		<stop  offset="0.05" style="stop-color:#FFF200"/>
		<stop  offset="0.5337" style="stop-color:#0E58A8"/>
		<stop  offset="1" style="stop-color:#A93E89"/>
	</linearGradient>
	<path class="st49" d="M401.724,296.267c1.002,0.018,52.88-0.652,62.93-0.101c0,0.003-10.52,175.744-10.52,175.744
		c-3.093-7.484-2.631-27.326-2.678-28.326c-2.526-1.122-3.325-3.456-3.436-6.033c-2.678-13.68-3.324-104.931-9.529-116.573
		c-0.919-4.049-0.253-1.112-1.395-5.458l-0.485-0.01c-2.885,11.456-4.222,32.042-4.274,43.85c-0.687-0.344-2.041-1.021-2.719-1.364
		c-0.293,0.354-0.879,1.061-1.162,1.415c-4.898,70.022-5.15,90.551-9.994,96.281c-4.583-13.066-4.192-90.198-6.579-110.044
		c-1.253-3.719-0.798-7.681-0.788-11.521c-0.455-0.435-1.354-1.304-1.809-1.738c-0.707,6.879-1.815,12.057-2.344,16.503
		c-0.465,0-1.405,0.01-1.87,0.01C404.978,344.414,402.381,301.434,401.724,296.267z"/>
	
		<linearGradient id="SVGID_51_" gradientUnits="userSpaceOnUse" x1="483.501" y1="221.184" x2="491.0018" y2="221.184" gradientTransform="matrix(1 0 0 -1 0 534)">
		<stop  offset="0" style="stop-color:#FFF200"/>
		<stop  offset="0.5" style="stop-color:#F5AE28"/>
		<stop  offset="1" style="stop-color:#6FBE45"/>
	</linearGradient>
	<path class="st50" d="M483.501,296.247c2.496,0.071,4.992,0.091,7.499,0.091c-0.01,2.971,0.131,6.023-0.869,8.883
		c-1.37,20.088-1.536,19.071-2.769,24.164c-0.151-0.902-2.606-27.343-2.658-29.297C484.289,298.804,483.885,297.531,483.501,296.247
		z"/>
	
		<linearGradient id="SVGID_52_" gradientUnits="userSpaceOnUse" x1="493.647" y1="228.9405" x2="500.357" y2="228.9405" gradientTransform="matrix(1 0 0 -1 0 534)">
		<stop  offset="0" style="stop-color:#37FBF7"/>
		<stop  offset="0.5056" style="stop-color:#EDE71C"/>
		<stop  offset="1" style="stop-color:#2DF520"/>
	</linearGradient>
	<path class="st51" d="M493.647,296.328c2.233-0.01,4.467-0.03,6.71-0.061c-2.563,11.457,0.06,3.812-2.476,17.585
		c-0.455-0.435-1.354-1.294-1.809-1.728C493.37,293.535,496.014,307.717,493.647,296.328z"/>
	
		<linearGradient id="SVGID_53_" gradientUnits="userSpaceOnUse" x1="506.997" y1="203.6755" x2="522.58" y2="203.6755" gradientTransform="matrix(1 0 0 -1 0 534)">
		<stop  offset="0" style="stop-color:#A90093"/>
		<stop  offset="0.5" style="stop-color:#B90046"/>
		<stop  offset="1" style="stop-color:#7D00AA"/>
	</linearGradient>
	<path class="st52" d="M506.997,296.227c5.194,0.061,10.389,0.04,15.583,0.091c-0.283,0.667-0.829,1.991-1.102,2.658
		c-2.824,28.005-8.399,65.446-8.399,65.446c-0.485-0.445-1.435-1.334-1.92-1.779c-0.04-2.304-0.091-4.598-0.253-6.892
		c-1.374-4.244-0.586-8.762-0.99-13.138c-1.667-5.235-0.364-10.803-1.021-16.17C506.556,318.083,509.831,301.392,506.997,296.227z"
		/>
	
		<linearGradient id="SVGID_54_" gradientUnits="userSpaceOnUse" x1="524.996" y1="232.4675" x2="531.646" y2="232.4675" gradientTransform="matrix(1 0 0 -1 0 534)">
		<stop  offset="0" style="stop-color:#3BA2FF"/>
		<stop  offset="0.0645" style="stop-color:#54AAEB"/>
		<stop  offset="0.1334" style="stop-color:#67B1DD"/>
		<stop  offset="0.2044" style="stop-color:#72B5D4"/>
		<stop  offset="0.28" style="stop-color:#76B6D1"/>
		<stop  offset="0.67" style="stop-color:#9193A3"/>
		<stop  offset="0.89" style="stop-color:#A46A73"/>
		<stop  offset="1" style="stop-color:#B1334D"/>
	</linearGradient>
	<path class="st53" d="M524.996,296.318c2.213-0.01,4.426-0.04,6.65-0.081c-1.853,7.247-0.711,3.505-2.425,10.591
		c-0.455-0.455-1.385-1.354-1.839-1.809C526.56,300.097,525.419,297.434,524.996,296.318z"/>
	
		<linearGradient id="SVGID_55_" gradientUnits="userSpaceOnUse" x1="541.4471" y1="152.4862" x2="595.019" y2="152.4862" gradientTransform="matrix(1 0 0 -1 0 534)">
		<stop  offset="0" style="stop-color:#37E9F9"/>
		<stop  offset="0.5337" style="stop-color:#7F440D"/>
		<stop  offset="1" style="stop-color:#6CF222"/>
	</linearGradient>
	<path class="st54" d="M541.448,296.217c6.383-0.07,48.295-0.317,53.571,0.01c-0.712,18.56-3.024,79.034-8.297,96.259l-0.718-0.172
		c-6.613-55.086-5.317-68.885-8.449-78.532c-2.83,4.416-1.051,9.772-2.314,14.593c-1.584,7.017-4.799,18.343-7.58,49.205
		c-0.627,1.061-1.243,2.122-1.849,3.193c-0.081-0.738-0.232-2.203-0.303-2.931c-3.198-9.243-0.301-12.863-4.639-15.492
		c-0.607,10.098-4.958,55.836-5.022,56.057c-0.139,1.151-1.323,43.516-2.982,48.559c-0.465-3.709-0.293-7.448-0.546-11.167
		c-1.708-5.922-0.283-12.147-1-18.191c-1.859-7.256-0.162-14.856-1.011-22.233c-1.87-7.6-0.131-15.533-1.011-23.244
		c-1.849-7.266-0.152-14.856-1-22.233c-1.738-6.266-0.293-12.855-0.95-19.242c-2.134-7.426-2.626-16.443-3.092-24.204
		C543.742,324.835,541.396,302.542,541.448,296.217z"/>
	
		<linearGradient id="SVGID_56_" gradientUnits="userSpaceOnUse" x1="627.319" y1="212.9425" x2="650.684" y2="212.9425" gradientTransform="matrix(1 0 0 -1 0 534)">
		<stop  offset="0" style="stop-color:#DA2128"/>
		<stop  offset="1" style="stop-color:#00A84F"/>
	</linearGradient>
	<path class="st55" d="M627.319,296.207c7.782,0.061,15.573,0.212,23.365,0.02c-2.365,4.335-0.03,9.53-1.87,14.047
		c-0.662,10.542-1.746,25.806-5.508,35.634c-0.707-0.01-2.112-0.051-2.82-0.071c0.02-0.677,0.061-2.031,0.071-2.708
		c-1.182-0.768-2.365-1.516-3.537-2.274c-0.768,0.435-1.526,0.879-2.274,1.314C628.408,325.366,630.679,304.584,627.319,296.207z"/>
	
		<linearGradient id="SVGID_57_" gradientUnits="userSpaceOnUse" x1="672.492" y1="142.8817" x2="729.591" y2="142.8817" gradientTransform="matrix(1 0 0 -1 0 534)">
		<stop  offset="0" style="stop-color:#A90093"/>
		<stop  offset="0" style="stop-color:#954937"/>
		<stop  offset="0.5056" style="stop-color:#A58735"/>
		<stop  offset="1" style="stop-color:#DAD521"/>
	</linearGradient>
	<path class="st56" d="M672.492,296.197c9.145-0.272,52.126-0.54,57.099,0.243c-0.141,2.274-0.232,4.578-0.97,6.751
		c-0.505,4.709,0.485,9.57-0.99,14.148c-0.859,7.054,0.839,14.31-1.011,21.233c-0.889,8.054,0.889,16.331-1,24.254
		c0,0,0.189,13.529-2.345,36.614l-0.829-0.02c-1.232-9.626-1.168-2.28-1.071-16.189h-0.738c-4.345,30.108-0.409,51.798-5.093,59.352
		c-2.359-14.959-6.901-69.465-7.348-86.637h-1c-0.033,21.266-1.832,107.106-11.034,123.95c0.054-5.009-1.356-13.31-2.446-18.847
		c-0.354,0-1.071,0-1.435,0c-0.788,8.418-2.254,16.796-2.244,25.265h-6.053c-0.04-2.931-0.101-5.882-0.687-8.762
		c-0.75-3.996-3.231-83.735-3.628-87.437c-1.87-7.6-0.131-15.523-1-23.244c-1.728-5.912-0.273-12.147-1-18.191
		c-0.839-2.638-0.889-5.407-1.031-8.135C671.454,320.882,675.732,311.27,672.492,296.197z"/>
	
		<linearGradient id="SVGID_58_" gradientUnits="userSpaceOnUse" x1="731.8246" y1="237.2423" x2="732.0873" y2="237.2423" gradientTransform="matrix(1 0 0 -1 0 534)">
		<stop  offset="0" style="stop-color:#51F321"/>
		<stop  offset="1" style="stop-color:#C80054"/>
	</linearGradient>
	<path class="st57" d="M731.825,296.763l0.262-0.011C732.007,296.767,731.918,296.763,731.825,296.763z"/>
	
		<linearGradient id="SVGID_59_" gradientUnits="userSpaceOnUse" x1="747.297" y1="218.845" x2="763.982" y2="218.845" gradientTransform="matrix(1 0 0 -1 0 534)">
		<stop  offset="0" style="stop-color:#9300AB"/>
		<stop  offset="1" style="stop-color:#94EC2F"/>
	</linearGradient>
	<path class="st58" d="M747.297,296.237c5.548,0.141,11.117,0,16.685,0.071c-0.152,2.314-0.273,4.649-0.98,6.882
		c-0.889,7.91,1.061,10.56-1.567,21.071c-1.86-4.391-1.752-4.895-4.011-13.795c-0.364,0-1.091,0-1.445,0
		c-0.403,2.88-3.094,20.314-3.395,23.607c-0.485-0.435-1.465-1.324-1.95-1.769C750.634,319.514,748.913,304.18,747.297,296.237z"/>
	
		<linearGradient id="SVGID_60_" gradientUnits="userSpaceOnUse" x1="765.528" y1="171.008" x2="794.178" y2="171.008" gradientTransform="matrix(1 0 0 -1 0 534)">
		<stop  offset="0" style="stop-color:#7F440D"/>
		<stop  offset="1" style="stop-color:#00CFFF"/>
	</linearGradient>
	<path class="st59" d="M765.528,296.308c9.55-0.01,19.1,0.01,28.65-0.091c0,1.065-8.922,86.816-8.923,86.819
		c-0.336,3.226,0.202,32.649-3.416,46.731c-0.455,0-1.354-0.01-1.799-0.01c-0.664-5.639-2.51-13.239-3.436-24.498
		C769.724,375.85,777.091,359.336,765.528,296.308z"/>
	
		<linearGradient id="SVGID_61_" gradientUnits="userSpaceOnUse" x1="809.085" y1="142.8978" x2="862.818" y2="142.8978" gradientTransform="matrix(1 0 0 -1 0 534)">
		<stop  offset="0" style="stop-color:#B0D240"/>
		<stop  offset="0.5169" style="stop-color:#FFDF00"/>
		<stop  offset="0.95" style="stop-color:#00AA4F"/>
	</linearGradient>
	<path class="st60" d="M809.085,296.227c17.908-0.323,35.826-0.536,53.733-0.02c-1.029,39.788-1.483,47.375-4.194,59.787
		c-0.364-0.02-1.081-0.051-1.435-0.061c-0.364-0.647-1.071-1.92-1.425-2.557c-0.015,1.002,0.333,18.82-2.83,23.476
		c-1.704-17.576-0.64,4.564-2.223-37.079h-0.758c-0.505,2.031-1.031,4.052-1.516,6.084c-0.394,0-1.182,0-1.577,0.01
		c-1.94-8.602-2.195-9.048-2.334-14.805c-0.424-0.435-1.263-1.294-1.688-1.728c-0.2,1.779-1.304,10.751-2.021,13.289
		c-0.273,3.699,0.162,7.519-1,11.106c-0.878,20.067,1.149,88.759-11.471,132.579H816.28
		C815.633,357.215,809.137,297.227,809.085,296.227z"/>
	
		<linearGradient id="SVGID_62_" gradientUnits="userSpaceOnUse" x1="891.014" y1="161.6618" x2="941.7239" y2="161.6618" gradientTransform="matrix(1 0 0 -1 0 534)">
		<stop  offset="0.05" style="stop-color:#00AB4E"/>
		<stop  offset="0.5" style="stop-color:#BD268F"/>
		<stop  offset="1" style="stop-color:#F26922"/>
	</linearGradient>
	<path class="st61" d="M891.014,296.257c16.887-0.02,33.784,0.051,50.671,0.03c0.02,3.325,0.273,6.741-0.829,9.944
		c-0.066,1-5.119,58.784-13.665,134.359c-1.556-1.566-2.678-3.466-3.739-5.366c-0.01-0.485-0.04-1.445-0.051-1.93
		c-0.849-1.344-1.678-2.678-2.516-4.012c-4.818,8.156-3.168,10.033-5.467,19.141c-0.505-0.475-1.516-1.435-2.021-1.92
		c-0.853-9.121-8.755-94.66-9.116-111.781h-0.98c-0.039,12.975-0.618,4.018-1.132,15.179c-0.445,0-1.314,0.01-1.758,0.01
		c-3.644-16.457-0.966-6.378-3.516-17.574c-1.477-4.103-3.876-7.487-4.992-28.126C891.044,301.644,891.054,298.925,891.014,296.257z
		"/>
	
		<linearGradient id="SVGID_63_" gradientUnits="userSpaceOnUse" x1="947.6414" y1="181.5263" x2="1002.624" y2="181.5263" gradientTransform="matrix(1 0 0 -1 0 534)">
		<stop  offset="0.05" style="stop-color:#007DFF"/>
		<stop  offset="0.5337" style="stop-color:#A80E38"/>
		<stop  offset="1" style="stop-color:#A9913E"/>
	</linearGradient>
	<path class="st62" d="M947.708,296.298c18.312,0.283,36.614-0.778,54.916-0.051c-1.302,5.818-1.211,3.954-1.384,10.783
		c-0.455,0.445-1.354,1.344-1.799,1.789c-0.515-1.809-1.021-3.608-1.486-5.417l-0.728-0.03c-0.273,5.649,0.829,11.48-0.778,16.998
		c-0.707,5.71,0.677,11.612-1.011,17.19c-0.637,5.366,0.606,10.925-1,16.17c-1.025,9.544,1.635,16.127-2.952,37.331
		c-0.141,0.96-0.273,1.92-0.384,2.88c-0.435,0.455-1.304,1.354-1.738,1.809c-4.327-14.5-7.319-44.729-7.468-51.186
		c-2.452-7.687-2.675-10.335-3.051-13.885h-0.576c-3.141,24.467-2.755,54.81-5.387,69.095c-0.485-0.445-1.465-1.334-1.961-1.779
		c0.01-1.688,0.02-3.375,0.051-5.053c-0.455,0.435-1.354,1.304-1.799,1.738c-0.744,3.825-0.753,4.425-2.779,11.47
		c-2.221-1.877-2.547-4.378-3.739-9.459c-0.414-0.424-1.243-1.273-1.657-1.708c0.212,4.224-1.091,8.236-2.385,12.178
		c-0.435,0.455-1.314,1.354-1.748,1.799c-0.505-0.455-1.506-1.385-2.011-1.839c-6.622-46.029-6.3-98.871-6.347-99.888
		C947.314,303.705,947.698,299.946,947.708,296.298z"/>
	
		<linearGradient id="SVGID_64_" gradientUnits="userSpaceOnUse" x1="1025.251" y1="164.231" x2="1108.585" y2="164.231" gradientTransform="matrix(1 0 0 -1 0 534)">
		<stop  offset="0" style="stop-color:#7F440D"/>
		<stop  offset="1" style="stop-color:#00CFFF"/>
	</linearGradient>
	<path class="st63" d="M1025.251,296.237c0.001,0,83.333,0.041,83.334,0.041c-1.617,24.725-3.611,30.1-4.355,34.421
		c-0.384-0.01-1.132-0.01-1.506-0.02c-0.505-1.496-1.031-2.991-1.556-4.467c-0.404,0.455-1.213,1.374-1.617,1.829
		c-0.429,2.023-11.341,103.133-11.431,104.133c-0.475-0.455-1.415-1.354-1.89-1.809c-6.12-60.933-6.79-70.247-9.386-80.099
		c-0.374-0.435-1.122-1.304-1.496-1.738c-2.001,3.709-3.719,7.569-6.053,11.076c-2.553,10.618-8.378,80.874-8.427,81.878
		c-0.485,0.455-1.455,1.364-1.95,1.819c-1.844-38.73-12.488-28.912-17.222-128.792c-0.495,0-1.486,0-1.981,0
		c-0.02,2.021-0.03,4.052-0.03,6.084c-0.475,0-1.445,0-1.92,0c-0.969-10.611-1.215-2.607-1.112-15.765
		c-0.435-0.424-1.304-1.273-1.738-1.708c-1.181,3.36-3.141,15.385-3.375,20.121c-0.465,0.435-1.395,1.314-1.859,1.748
		C1029.284,321.572,1028.05,312.225,1025.251,296.237z"/>
	
		<linearGradient id="SVGID_65_" gradientUnits="userSpaceOnUse" x1="1115.4771" y1="180.8817" x2="1138.0441" y2="180.8817" gradientTransform="matrix(1 0 0 -1 0 534)">
		<stop  offset="0" style="stop-color:#7F440D"/>
		<stop  offset="1" style="stop-color:#00CFFF"/>
	</linearGradient>
	<path class="st64" d="M1115.477,296.217c7.519-0.515,15.038,0.02,22.567,0.03c-1.034,4.65-2.791,81.977-5.104,89.822
		c-0.832,12.486-0.815,5.246-1.354,12.966c-0.475,0.455-1.425,1.344-1.9,1.789c-0.725-8.055-1.177-4.68-2.264-13.976
		c-0.617-1.081-1.233-2.153-1.839-3.214c0.041,7.812-0.66,20.12-3.79,26.609C1119.118,390.984,1116.267,313.609,1115.477,296.217z"
		/>
	
		<linearGradient id="SVGID_66_" gradientUnits="userSpaceOnUse" x1="1176.84" y1="180.917" x2="1242.8934" y2="180.917" gradientTransform="matrix(1 0 0 -1 0 534)">
		<stop  offset="0.05" style="stop-color:#7C00AB"/>
		<stop  offset="0.5" style="stop-color:#BD9C26"/>
		<stop  offset="1" style="stop-color:#63F222"/>
	</linearGradient>
	<path class="st65" d="M1176.84,296.247c0.002,0,65.972,0.06,65.972,0.06c-0.081,4.315,0.556,8.762-0.788,12.946
		c-0.93,8.732,0.91,17.685-1.011,26.286c-0.92,8.732,0.92,17.685-1,26.286c-0.859,7.377,0.839,14.967-1.011,22.223
		c-0.687,5.7,0.657,11.592-1,17.18c-0.172,2.284-0.222,4.588-0.253,6.892c-0.485,0.445-1.455,1.344-1.94,1.799
		c-2.605-24.524,0.352-12.473-2.385-24.295c-0.364-0.435-1.091-1.304-1.455-1.748c-0.9,2.698-1.769,5.386-2.516,8.125
		c-0.424,0.445-1.253,1.334-1.667,1.789c-0.515-2.062-1.011-4.123-1.405-6.195c-0.445-0.435-1.314-1.294-1.758-1.728
		c-0.02,1.294-0.02,2.587-0.01,3.891c-1.87,1.819-3.598,3.78-4.901,6.043c-1.935,7.633-2.443,10.407-6.953,13.33
		c-0.397-2.582-1.835-11.945-5.629-25.739c-1.9-0.333-4.477,0.475-5.568-1.577c-0.547-3.735,0.085-10.929-3.598-17.038
		c-1.961,1.051-3.638,2.526-5.407,3.83c-1.708-4.083-1.253-8.54-1.516-12.845c-1.55-5.104-2.859-33.754-7.053-47.376
		c-1.203,0.04-2.385,0.081-3.557,0.121C1179.181,305.16,1178.74,304.341,1176.84,296.247z"/>
	
		<linearGradient id="SVGID_67_" gradientUnits="userSpaceOnUse" x1="1248.542" y1="205.672" x2="1269.0983" y2="205.672" gradientTransform="matrix(1 0 0 -1 0 534)">
		<stop  offset="0" style="stop-color:#A02632"/>
		<stop  offset="1" style="stop-color:#1FF246"/>
	</linearGradient>
	<path class="st66" d="M1248.542,296.298c6.852-0.051,13.704,0.02,20.556-0.051c0.016,10.899-0.808,54.062-3.215,61.798
		l-0.728-0.101c-1.05-4.914-3.18-20.582-3.355-23.224c-0.364,0-1.102,0-1.465,0c-3.89,12.928-1.036,18.709-3.467,25.689
		c-0.475-0.455-1.405-1.364-1.87-1.819c-0.939-7.611-1.008-2.737-2.436-14.998C1250.729,336.393,1250.789,306.861,1248.542,296.298z
		"/>
	
		<linearGradient id="SVGID_68_" gradientUnits="userSpaceOnUse" x1="1301.76" y1="235.838" x2="1304.2799" y2="235.838" gradientTransform="matrix(1 0 0 -1 0 534)">
		<stop  offset="0" style="stop-color:#1FF626"/>
		<stop  offset="0.4888" style="stop-color:#C80054"/>
		<stop  offset="0.9944" style="stop-color:#75F222"/>
	</linearGradient>
	<path class="st67" d="M1301.76,296.277c0.586,0.01,1.748,0.04,2.334,0.051c0.485,1.273,0.02,3.295-1.385,3.719
		C1301.983,298.935,1301.841,297.561,1301.76,296.277z"/>
	
		<linearGradient id="SVGID_69_" gradientUnits="userSpaceOnUse" x1="1307.228" y1="142.7996" x2="1400.6471" y2="142.7996" gradientTransform="matrix(1 0 0 -1 0 534)">
		<stop  offset="0" style="stop-color:#DAD521"/>
		<stop  offset="0.5225" style="stop-color:#75ED30"/>
		<stop  offset="1" style="stop-color:#97F023"/>
	</linearGradient>
	<path class="st68" d="M1307.228,296.338c25.094-0.498,92.419-0.088,93.419-0.091c-0.611,8.694-2.515,16.113-3.82,21.991
		c-0.162,2.254-1.364,4.042-3.385,5.073c-0.251,3.69-2.742,69.36-4.296,82.799c-0.96-1.395-1.89-2.809-2.799-4.224
		c-1.27-8.286-0.945-4.237-1.253-12.815c-12.045-43.986-3.367-38.859-9.226-66.477l-0.677-0.01
		c-0.235,5.046-2.73,74.022-6.134,86.335c-0.485-0.455-1.455-1.364-1.93-1.819c-0.01-0.798-0.02-2.395-0.02-3.193
		c-0.657,1.051-1.283,2.102-1.9,3.163c-0.025,1.001-5.361,77.064-6.205,79.24h-1.91c0.061-4.416-1.193-8.701-1.182-13.097
		c-0.484-59.365-5.558-56.052-7.305-77.048c-1.783-6.452-2.868-56.268-5.155-63.788c-0.116-0.549-1.575-8.148-1.759-9.207
		c-0.829-1.395-1.637-2.769-2.466-4.133c-4.171,11.709-3.78,17.386-5.538,32.44c-1.263,1.273-2.516,2.547-3.749,3.83
		c-5.715,39.751-3.643,44.126-7.144,49.913c-0.06-1.002-0.223-19.362-4.82-34.775c-1.405,1.91-2.618,3.941-3.78,6.003
		c-0.384-0.424-1.162-1.253-1.556-1.667C1311.323,370.629,1308.948,310.279,1307.228,296.338z"/>
	
		<linearGradient id="SVGID_70_" gradientUnits="userSpaceOnUse" x1="1441.788" y1="156.7929" x2="1539.189" y2="156.7929" gradientTransform="matrix(1 0 0 -1 0 534)">
		<stop  offset="0.05" style="stop-color:#FFF200"/>
		<stop  offset="0.5337" style="stop-color:#0E58A8"/>
		<stop  offset="1" style="stop-color:#A93E89"/>
	</linearGradient>
	<path class="st69" d="M1441.788,296.257c12.159,0.304,86.156-0.711,97.401-0.051c-3.355,24.597-1.033,56.23-14.927,106.88
		c-5.304-3.649-5.623-46.736-10.763-65.405c-0.697,0.03-2.092,0.081-2.789,0.101c-0.041-0.505-0.131-1.536-0.182-2.052l-0.819-0.02
		c-0.019,1-3.431,72.997-6.244,84.576c-0.434,0.435-1.314,1.304-1.748,1.738c-2.768-9.439-0.876-3.433-3.497-14.553h-0.475
		c-2.955,10.763-2.37,26.627-6.398,50.965c-0.485-0.455-1.455-1.354-1.94-1.809c-2.072-78.223-6.19-106.731-6.215-107.213
		c-5.046-7.074-4.413-9.388-5.134-21.96c-1.688-6.185-0.455-12.683-0.788-19.009l-0.819-0.01c-0.07,1-8.417,75.595-9.045,77.632
		c-0.331,2.682-0.832,33.942-4.963,53.489c-0.162,0.95-0.293,1.91-0.404,2.87c-0.404,0.445-1.213,1.334-1.617,1.779
		c-0.768-1.324-1.516-2.638-2.244-3.962c-5.654-30.81-2.073-26.168-3.385-39.019c-1.617-5.245-0.374-10.803-1-16.17
		c-1.738-5.912-0.273-12.157-1.01-18.191c-1.688-5.578-0.313-11.48-1-17.18c-1.496-4.578-0.505-9.449-1-14.148
		c-1.582-4.729,0.127-4.254-2.152-14.967c-0.333,0-1.011,0-1.344,0c-1.411,4.688-1.022,3.117-1.395,5.72
		c-0.495,0.445-1.496,1.314-1.991,1.748C1443.956,306.712,1441.884,304.522,1441.788,296.257z"/>
	
		<linearGradient id="SVGID_71_" gradientUnits="userSpaceOnUse" x1="1578.9969" y1="167.7193" x2="1673.448" y2="167.7193" gradientTransform="matrix(1 0 0 -1 0 534)">
		<stop  offset="0" style="stop-color:#00AB66"/>
		<stop  offset="1" style="stop-color:#EC5C2F"/>
	</linearGradient>
	<path class="st70" d="M1578.997,296.186c29.64,0.221,87.046-0.355,94.451,0.05c-0.027,1.001-5.259,61.708-15.362,105.686
		c-0.92,1.405-1.839,2.799-2.769,4.184c-0.505-0.495-1.526-1.486-2.031-1.981c-3.243-12.582-4.864-35.348-7.479-76.663
		c-0.92-2.658-0.859-5.488-0.849-8.257c-0.485,0.445-1.465,1.314-1.95,1.758c-0.404,7.529,0.98,15.26-0.788,22.658
		c-0.808,6.71,0.798,13.623-1,20.202c-0.869,7.387,0.839,14.987-1,22.243c-0.356,2.988-0.473,43.132-4.012,50.408
		c-1.424-9.03-4.424-41.739-4.436-42.739c-0.404-0.424-1.223-1.283-1.627-1.708c-2.558,10.642-5.337,39.767-5.376,40.767
		c-0.485,0-1.445,0-1.93,0c-0.111-1.779-2.707-50.328-3.061-57.655h-0.808c-0.331,4.152-2.111,15.951-4.336,25.709
		c-0.758,1.253-1.496,2.506-2.223,3.759c-0.526-0.061-1.587-0.162-2.122-0.212c-0.687-1.041-1.395-2.041-2.132-3.012
		c-1.223,0.152-2.405,0.505-3.537,0.829c-4.329-7.392-1.398-6.617-5.911-15.481c-0.543,10.269-5.151,38.352-5.285,39.353
		c-0.475-0.445-1.415-1.344-1.88-1.789c-2.502-16.133-11.352-123.224-11.389-124.224
		C1579.735,298.784,1579.351,297.48,1578.997,296.186z"/>
	
		<linearGradient id="SVGID_72_" gradientUnits="userSpaceOnUse" x1="1718.7892" y1="157.5255" x2="1810.849" y2="157.5255" gradientTransform="matrix(1 0 0 -1 0 534)">
		<stop  offset="0" style="stop-color:#3BA2FF"/>
		<stop  offset="0.0494" style="stop-color:#2BC0F5"/>
		<stop  offset="0.1046" style="stop-color:#1EDBED"/>
		<stop  offset="0.1611" style="stop-color:#14EEE7"/>
		<stop  offset="0.2191" style="stop-color:#0EF9E3"/>
		<stop  offset="0.2809" style="stop-color:#0CFDE2"/>
		<stop  offset="0.6685" style="stop-color:#4EF33F"/>
		<stop  offset="0.8876" style="stop-color:#97ED3C"/>
		<stop  offset="1" style="stop-color:#E8E93A"/>
	</linearGradient>
	<path class="st71" d="M1718.793,296.247c0.001,0,92.055,0.001,92.056,0.001c-2.769,5.973,0.394,12.926-1.89,19.08
		c-4.328,39.487,3.413,6.794-5.973,48.488c-0.48,5.857-2.807,25.345-5.477,37.271c-0.435,0.435-1.304,1.314-1.728,1.758
		c-0.069-0.244-5.033-18.418-5.529-20.03c-8.777-11.732-1.05-17.19-12.097-69.639c-0.374,0.424-1.132,1.273-1.516,1.698
		c-2.729,18.489-4.2,132.756-7.742,141.828c-3.411-14.808-1.827-27.694-4.852-59.515c-0.738-2.223-0.829-4.578-0.91-6.882h-0.626
		c-0.064,0.456-4.365,29.954-4.365,29.954c-0.465,0.445-1.395,1.334-1.849,1.779c-6.314-34.815-3.007-67.363-5.375-87.509
		c-1.172-3.385-0.839-6.993-0.798-10.5c-0.435-0.435-1.314-1.294-1.748-1.718c-10.171,43.349-4.388,79.747-17.585,82.363
		c-1.455-2.112-3.749-3.274-5.902-4.497C1720.9,366.529,1718.685,334.564,1718.793,296.247z"/>
	
		<linearGradient id="SVGID_73_" gradientUnits="userSpaceOnUse" x1="1831.8744" y1="221.528" x2="1836.0461" y2="221.528" gradientTransform="matrix(1 0 0 -1 0 534)">
		<stop  offset="0.05" style="stop-color:#00AB4E"/>
		<stop  offset="0.5" style="stop-color:#BD268F"/>
		<stop  offset="1" style="stop-color:#F26922"/>
	</linearGradient>
	<path class="st72" d="M1831.979,296.267c1.334,0.01,2.688,0.01,4.063-0.01c0.071,38.099-0.778,17.016-1.072,32.4l-0.798,0.03
		c-1.964-8.163-0.889-8.86-1.375-15.381C1831.141,307.778,1832.283,301.927,1831.979,296.267z"/>
	
		<linearGradient id="SVGID_74_" gradientUnits="userSpaceOnUse" x1="1853.95" y1="160.3872" x2="1942.215" y2="160.3872" gradientTransform="matrix(1 0 0 -1 0 534)">
		<stop  offset="0.0056" style="stop-color:#00AD8E"/>
		<stop  offset="0.5" style="stop-color:#DA2128"/>
		<stop  offset="1" style="stop-color:#F26922"/>
	</linearGradient>
	<path class="st73" d="M1853.95,296.237c0.087,0,77.119-0.01,88.265,0.011c-0.059,8.843-5.136,67.376-5.173,68.378
		c-0.404,0.424-1.213,1.273-1.627,1.698l-0.718-1.546c-0.354,0.414-1.051,1.253-1.405,1.667c-0.833,5.417-4.337,36.528-4.366,37.038
		c-0.465-0.01-1.395-0.01-1.859-0.01c-0.85-6.706-1.622-9.271-3.315-15.584c-0.333,0.404-0.99,1.213-1.324,1.617
		c-0.333-0.404-1.011-1.203-1.344-1.607c-6.032-23.06-10.831-62.367-11.6-66.315l-0.707-0.01c-0.01,3.982,0.526,8.095-0.778,11.945
		c-0.505,4.699,0.475,9.57-1,14.148c-0.647,5.366,0.616,10.925-1,16.17c-0.697,5.7,0.657,11.592-1.011,17.18
		c-0.697,5.7,0.667,11.592-1.011,17.17c-0.728,6.043,0.718,12.279-1,18.201c-0.93,9.732,0.91,19.676-0.98,29.297
		c-0.152,1.758-0.253,3.527-0.323,5.306c-0.495,0-1.486,0-1.981,0c-0.03-2.779-0.051-5.558-0.243-8.327
		c-1.455-4.588-0.526-9.449-0.99-14.148c-1.738-5.912-0.293-12.147-1.021-18.191c-1.728-5.922-0.283-12.157-1-18.201
		c-1.475-4.578-0.526-9.439-1-14.138c-0.94-2.759-0.839-5.7-1.031-8.56c-3.88,5.796-1.792,25.167-3.537,31.793
		c-0.152,1.758-0.253,3.527-0.313,5.296c-0.475,0-1.425,0-1.9,0c-0.098-1-2.813-24.94-4.245-56.897
		c-2.785-7.832-4.907-20.636-5.437-23.688c-3.591,4.255-3.828,8.432-6.236,7.873c-2.011-2.544-0.195-3.704-6.316-9.692
		c-0.061-0.475-0.172-1.425-0.222-1.89c-3.993-9.615-2.275-10.728-5.275-14.886c-1.233,0.182-2.446,0.556-3.588,0.91
		C1854.973,298.086,1855.718,304.284,1853.95,296.237z"/>
	
		<linearGradient id="SVGID_75_" gradientUnits="userSpaceOnUse" x1="1977.2531" y1="189.3905" x2="2004.9131" y2="189.3905" gradientTransform="matrix(1 0 0 -1 0 534)">
		<stop  offset="0" style="stop-color:#9300AB"/>
		<stop  offset="1" style="stop-color:#94EC2F"/>
	</linearGradient>
	<path class="st74" d="M1977.253,296.247c9.217,0.121,18.433,0.061,27.66-0.02c-0.271,11.878-6.652,47.611-10.288,84.395
		c-2.395,4.143-4.659,8.368-7.266,12.37C1982.245,382.5,1988.28,394.675,1977.253,296.247z"/>
	
		<linearGradient id="SVGID_76_" gradientUnits="userSpaceOnUse" x1="2017.8796" y1="144.6701" x2="2075.897" y2="144.6701" gradientTransform="matrix(1 0 0 -1 0 534)">
		<stop  offset="0" style="stop-color:#00A995"/>
		<stop  offset="0.5" style="stop-color:#006EB9"/>
		<stop  offset="1" style="stop-color:#00AA4F"/>
	</linearGradient>
	<path class="st75" d="M2017.929,296.156c3.101-0.164,42.124-0.39,57.968,0.081c-2.939,9.108,0.073,13.539-2.152,21.101
		c-1.012,9.544,1.272,13.284-1.829,30.237c-3.463,15.964-10.364,78.722-10.611,81.172c-0.445,0-1.344,0.01-1.789,0.01
		c-2.64-11.026-4.667-43.862-6.185-47.992c-0.515,0.475-1.536,1.425-2.052,1.9c-0.01,1.061,0,2.132,0.04,3.204
		c-0.495,0.455-1.486,1.344-1.981,1.789c0,0-4.329-26.101-4.366-26.296c-0.374-0.424-1.112-1.273-1.475-1.698
		c-2.485,9.854-9.38,120.189-9.418,121.201c-0.465,0.465-1.374,1.385-1.839,1.839c-4.989-33.153-1.308-34.488-5.426-87.537
		c-0.879-2.638-0.91-5.427-1-8.166c-0.435-1.354-0.849-2.708-1.223-4.063c-0.91,0.505-1.789,1.021-2.638,1.536
		C2017.139,365.07,2017.927,297.233,2017.929,296.156z"/>
	
		<linearGradient id="SVGID_77_" gradientUnits="userSpaceOnUse" x1="2095.667" y1="217.3085" x2="2106.1238" y2="217.3085" gradientTransform="matrix(1 0 0 -1 0 534)">
		<stop  offset="0" style="stop-color:#3BA2FF"/>
		<stop  offset="0.0266" style="stop-color:#46B0E9"/>
		<stop  offset="0.0748" style="stop-color:#58C5C7"/>
		<stop  offset="0.124" style="stop-color:#66D5AC"/>
		<stop  offset="0.174" style="stop-color:#6FE199"/>
		<stop  offset="0.2253" style="stop-color:#75E88E"/>
		<stop  offset="0.28" style="stop-color:#77EA8A"/>
		<stop  offset="0.67" style="stop-color:#CBDA87"/>
		<stop  offset="0.89" style="stop-color:#CDC16C"/>
		<stop  offset="1" style="stop-color:#BE9F2F"/>
	</linearGradient>
	<path class="st76" d="M2095.755,296.247c3.446,0.091,6.902,0.061,10.369,0.051c-0.42,2.911-4.365,30.56-4.305,39.029
		c-0.475,0.455-1.425,1.354-1.9,1.809c-2.713-10.566-1.599-6.839-3.365-28.883C2095.25,304.372,2095.775,300.249,2095.755,296.247z"
		/>
	
		<linearGradient id="SVGID_78_" gradientUnits="userSpaceOnUse" x1="2111.813" y1="163.1073" x2="2146.356" y2="163.1073" gradientTransform="matrix(1 0 0 -1 0 534)">
		<stop  offset="0" style="stop-color:#A90093"/>
		<stop  offset="0.5" style="stop-color:#B90046"/>
		<stop  offset="1" style="stop-color:#7D00AA"/>
	</linearGradient>
	<path class="st77" d="M2111.813,296.277c11.48,0.01,22.971-0.04,34.471,0.01c-0.051,3.982,0.495,8.105-0.798,11.955
		c-0.102,1.001-8.924,98.489-10.074,102.079c-0.542,4.999,1.025,26.949-4.861,35.2c-6.536-17.153-17.786-140.31-17.846-141.311
		C2111.834,301.654,2111.834,298.935,2111.813,296.277z"/>
	
		<linearGradient id="SVGID_79_" gradientUnits="userSpaceOnUse" x1="2150.2671" y1="179.0633" x2="2210.0032" y2="179.0633" gradientTransform="matrix(1 0 0 -1 0 534)">
		<stop  offset="0" style="stop-color:#A90093"/>
		<stop  offset="0" style="stop-color:#954937"/>
		<stop  offset="0.5056" style="stop-color:#A58735"/>
		<stop  offset="1" style="stop-color:#DAD521"/>
	</linearGradient>
	<path class="st78" d="M2150.267,296.298c19.909,0.414,39.817-0.94,59.736-0.091c-4.794,12.581-3.015,70.869-8.953,84.739
		c-0.111,1.112-0.192,2.233-0.243,3.355c-1.303-0.051-2.587-0.091-3.84-0.141c-3.662,6.773-2.635,6.765-5.508,9.843
		c-1.238-2.604-2.712-4.662-2.921-15.078c-0.46-1.36-1.443-4.842-1.96-7.286c-0.829-1.283-1.647-2.557-2.456-3.82
		c-1.425,0.576-2.779,1.152-4.164,1.698c-4.292-12.872-0.783-8.186-3.638-21.284c-0.364-0.424-1.071-1.273-1.425-1.698
		c-2.279,8.475-6.414,58.157-6.346,65.618c-0.495,0.445-1.496,1.344-1.991,1.799c-1.454-12.148-0.984,4.338-3.315-28.882
		c-1.587-4.911-0.455-10.126-1.011-15.169c-1.647-5.245-0.384-10.803-1.01-16.17c-1.576-4.911-0.435-10.126-1.01-15.169
		c-1.304-3.911-0.667-8.085-1-12.117c-0.849-2.628-0.91-5.397-1.061-8.115c-0.435-1.799-0.788-3.618-1.112-5.417
		c-1.122,2.769-2.203,5.548-3.406,8.277c-1.027-4.61-1.051-4.77-1.647-9.934C2150.62,306.353,2152.136,301.108,2150.267,296.298z"/>
	
		<linearGradient id="SVGID_80_" gradientUnits="userSpaceOnUse" x1="2250.386" y1="183.569" x2="2306.03" y2="183.569" gradientTransform="matrix(1 0 0 -1 0 534)">
		<stop  offset="0" style="stop-color:#00A995"/>
		<stop  offset="0" style="stop-color:#3C3795"/>
		<stop  offset="0.5056" style="stop-color:#A53594"/>
		<stop  offset="1" style="stop-color:#DA2128"/>
	</linearGradient>
	<path class="st79" d="M2250.386,296.227c18.555,0.455,37.099-0.616,55.644,0.111c-0.007,0.717-6.206,88.317-6.206,88.317
		c-0.465-0.445-1.415-1.344-1.89-1.789c-0.795-7.351-3.208-22.403-3.103-31.986l-1.01,0.02c-0.256,10.916-1.425,31.43-5.296,41.809
		c-0.404-0.435-1.213-1.304-1.617-1.738c-2.897-11.426-3.163-10.575-3.334-17.847c-0.394,0-1.172,0-1.566,0
		c-2.653,9.509-2.513,12.9-6.821,20.696c-1.192-1.627-2.365-3.264-3.466-4.922c-1.597,1.415-3.022,3.012-4.063,4.871
		c-1.438,6.079-0.802,4.156-4.426,11.016c-0.435-0.445-1.304-1.324-1.728-1.769c-0.02-0.505-0.061-1.516-0.091-2.021
		c-0.647-1.071-1.273-2.132-1.87-3.193C2253.826,360.53,2250.4,297.242,2250.386,296.227z"/>
	
		<linearGradient id="SVGID_81_" gradientUnits="userSpaceOnUse" x1="2308.677" y1="179.4149" x2="2341.4238" y2="179.4149" gradientTransform="matrix(1 0 0 -1 0 534)">
		<stop  offset="0" style="stop-color:#3BA2FF"/>
		<stop  offset="0.0645" style="stop-color:#54AAEB"/>
		<stop  offset="0.1334" style="stop-color:#67B1DD"/>
		<stop  offset="0.2044" style="stop-color:#72B5D4"/>
		<stop  offset="0.28" style="stop-color:#76B6D1"/>
		<stop  offset="0.67" style="stop-color:#9193A3"/>
		<stop  offset="0.89" style="stop-color:#A46A73"/>
		<stop  offset="1" style="stop-color:#B1334D"/>
	</linearGradient>
	<path class="st80" d="M2308.677,296.338c10.884-0.081,21.768-0.839,32.652-0.162c-0.202,5.023,0.718,10.217-0.798,15.108
		c-0.354,4.032,0.273,8.206-1,12.127c-5.086,100.023,5.369-24.148-3.536,73.652c-2.688-1.627-3.406-4.73-4.507-7.428
		c-3.52,12.617-3.38,21.836-3.476,23.638c-1.021-1.041-2.001-2.102-2.911-3.163c-0.623-7.98-3.519-23.138-4.305-33.148
		c-2.395-8.997-3.388-53.949-7.004-68.002c-1.364-1.627-2.627-3.305-3.8-5.053C2309.245,297.578,2309.898,302.715,2308.677,296.338z
		"/>
	
		<linearGradient id="SVGID_82_" gradientUnits="userSpaceOnUse" x1="2363.199" y1="230.623" x2="2367.6204" y2="230.623" gradientTransform="matrix(1 0 0 -1 0 534)">
		<stop  offset="0.0056" style="stop-color:#AD00A1"/>
		<stop  offset="0.5" style="stop-color:#DAD521"/>
		<stop  offset="1" style="stop-color:#63F222"/>
	</linearGradient>
	<path class="st81" d="M2363.199,296.257c1.445,0.02,2.91,0.01,4.416-0.01c0.07,12.709-0.562,7.425-1.122,14.26l-0.758-0.051
		c-0.971-4.233-1.296-5.044-1.254-11.45C2364.159,298.319,2363.522,296.944,2363.199,296.257z"/>
	
		<linearGradient id="SVGID_83_" gradientUnits="userSpaceOnUse" x1="2382.0061" y1="236.171" x2="2384.718" y2="236.171" gradientTransform="matrix(1 0 0 -1 0 534)">
		<stop  offset="0.0056" style="stop-color:#AD00A1"/>
		<stop  offset="0.5" style="stop-color:#DAD521"/>
		<stop  offset="1" style="stop-color:#63F222"/>
	</linearGradient>
	<path class="st82" d="M2382.006,296.247c0.626,0.01,1.87,0.04,2.496,0.051c0.667,1.243-0.323,2.658-1.465,3.113
		C2382.421,298.42,2382.077,297.369,2382.006,296.247z"/>
	
		<linearGradient id="SVGID_84_" gradientUnits="userSpaceOnUse" x1="2385.543" y1="163.2323" x2="2485.177" y2="163.2323" gradientTransform="matrix(1 0 0 -1 0 534)">
		<stop  offset="0" style="stop-color:#C80054"/>
		<stop  offset="0.4944" style="stop-color:#947235"/>
		<stop  offset="1" style="stop-color:#1FF246"/>
	</linearGradient>
	<path class="st83" d="M2385.543,296.318c11.526-0.141,99.634-0.081,99.634-0.081c-1.205,5.006-1.443,5.022-1.293,12.258
		c-2.87,2.466-4.78-1.617-6.741-3.173c-0.293,0.374-0.879,1.142-1.172,1.526c-1.65,10.247-6.327,92.591-6.355,93.591
		c-0.485,0-1.435,0-1.92,0c-0.091-2.102-0.162-4.194-0.293-6.286c-2.143-6.692-1.674-35.513-1.991-41.434
		c-1.496-4.578-0.515-9.449-1-14.148c-1.213-3.588-0.758-7.408-1.011-11.117c-0.556-1.92-0.849-3.901-1.081-5.872
		c-0.364,0-1.091,0-1.455,0c-3.311,16.266-0.59,4.393-3.506,15.544c-0.435-0.445-1.304-1.344-1.738-1.789
		c-2.113-11.785-0.179-22.748-4.508-26.487c-1.656,4.675-1.461,4.201-1.586,6.185c-1.465,2.163-3.153,4.143-4.932,6.033
		c-1.764,18.452-10.655,44.389-12.338,124.243c-0.505-0.455-1.526-1.374-2.031-1.839c0-3.305,0.02-6.619-0.212-9.914
		c-1.758-6.245-0.242-12.814-1-19.191c-2.245-9.541,0.704-14.305-2.071-29.116h-0.425c-0.525,1.92-1.091,3.83-1.627,5.75
		c-3.345-5.498-2.708-11.935-2.931-18.059c0,0-3.374-26.995-5.074-35.794c-0.394-0.455-1.172-1.364-1.566-1.809
		c-6.198,14.506-0.25,15.464-7.407,48.561c-0.404,0.435-1.223,1.283-1.627,1.718c-1.243-3.638-2.486-7.256-3.507-10.945
		c-1.647-2.719-3.295-5.427-4.79-8.206c-0.121-0.91-0.212-1.819-0.273-2.708C2393.512,353.488,2387.013,309.168,2385.543,296.318z"
		/>
	
		<linearGradient id="SVGID_85_" gradientUnits="userSpaceOnUse" x1="2493.8994" y1="223.7365" x2="2500.3369" y2="223.7365" gradientTransform="matrix(1 0 0 -1 0 534)">
		<stop  offset="0.05" style="stop-color:#7C00AB"/>
		<stop  offset="0.5" style="stop-color:#BD9C26"/>
		<stop  offset="1" style="stop-color:#63F222"/>
	</linearGradient>
	<path class="st84" d="M2493.92,296.257c2.112,0.02,4.245,0.03,6.417-0.02c-2.281,9.474-0.548,10.504-2.061,16.048
		c-0.981,10.902-0.71,4.806-1.586,12.005C2493.322,319.044,2493.968,297.259,2493.92,296.257z"/>
	
		<linearGradient id="SVGID_86_" gradientUnits="userSpaceOnUse" x1="2512.7981" y1="202.1845" x2="2541.7622" y2="202.1845" gradientTransform="matrix(1 0 0 -1 0 534)">
		<stop  offset="0" style="stop-color:#00A995"/>
		<stop  offset="0" style="stop-color:#3C3795"/>
		<stop  offset="0.5056" style="stop-color:#A53594"/>
		<stop  offset="1" style="stop-color:#DA2128"/>
	</linearGradient>
	<path class="st85" d="M2512.798,296.227c9.641,0.202,19.302,0.02,28.964,0.02c-0.283,0.687-0.829,2.052-1.112,2.739
		c-2.578,23.254-1.532,11.928-3.385,20.98c-6.455,11.867-8.983,40.617-8.983,45.669c-0.435,0.435-1.304,1.324-1.738,1.769
		C2508.863,316.594,2520.771,336.884,2512.798,296.227z"/>
	
		<linearGradient id="SVGID_87_" gradientUnits="userSpaceOnUse" x1="2549.3767" y1="174.0038" x2="2596.095" y2="174.0038" gradientTransform="matrix(1 0 0 -1 0 534)">
		<stop  offset="0" style="stop-color:#DA2128"/>
		<stop  offset="1" style="stop-color:#00A84F"/>
	</linearGradient>
	<path class="st86" d="M2549.492,296.025c15.502-0.101,31.005-0.222,46.508,0.04c0,21.671,1.126,77.9-4.376,86.77
		c-1.152-1.546-2.253-3.113-3.254-4.73c-0.344,0.374-1.031,1.112-1.375,1.475c-0.439-3.667-0.134-1.533-1.415-6.862
		c-4.593-6.025-5.745-19.227-5.892-22.839h-0.586c-0.485,1.819-1.01,3.618-1.475,5.437c-0.445-0.445-1.334-1.334-1.779-1.789
		c-0.691-6.333-3.196-19.829-3.355-20.839l-0.546,0.01c-3.885,29.956-9.301,88.567-9.338,89.568
		c-0.485,0.455-1.445,1.364-1.92,1.819c-2.278-22.007-0.368-20.896-1.304-29.934c-1.061-3.001-0.869-6.195-0.809-9.308
		c-0.374,0.394-1.132,1.193-1.516,1.587c-0.344-0.404-1.051-1.213-1.395-1.617c-1.745-9.117-1.273-9.36-5.448-62.425
		C2548.573,313.73,2549.927,304.797,2549.492,296.025z"/>
</g>
</svg>
