<?xml version="1.0" encoding="utf-8"?>
<!-- Uploaded to: SVG Repo, www.svgrepo.com, Generator: SVG Repo Mixer Tools -->
<svg height="800px" width="800px" version="1.1" id="Uploaded to svgrepo.com" xmlns="http://www.w3.org/2000/svg" xmlns:xlink="http://www.w3.org/1999/xlink" 
	 viewBox="0 0 32 32" xml:space="preserve">
<style type="text/css">
	.hatch_een{fill:#265AA5;}
	.hatch_twee{fill:#FFC5BB;}
</style>
<g>
	<g>
		<g>
			<path class="hatch_twee" d="M20.992,11.5c0.304,0,0.571,0.031,0.818,0.078l3.629-3.629c-0.187-0.044-0.355-0.103-0.513-0.17
				c-0.013-0.006-0.028-0.011-0.041-0.017c-0.157-0.069-0.303-0.148-0.44-0.233l0,0l-4.013,4.01
				C20.605,11.518,20.795,11.5,20.992,11.5z"/>
			<path class="hatch_twee" d="M28.811,19.391c-0.247,0.198-0.507,0.405-0.813,0.586L20.975,27h1.414l8.497-8.498
				C29.87,18.523,29.382,18.933,28.811,19.391z"/>
			<path class="hatch_twee" d="M24,19.973L16.975,27h1.414l6.613-6.613C24.61,20.293,24.286,20.143,24,19.973z"/>
			<path class="hatch_twee" d="M15.992,20.5c-0.174,0.003-0.335-0.015-0.489-0.031L8.975,27h1.414l6.619-6.619
				C16.711,20.454,16.37,20.494,15.992,20.5z"/>
			<path class="hatch_twee" d="M21.445,18.528L12.975,27h1.414l8.108-8.106C22.184,18.692,21.872,18.583,21.445,18.528z"/>
			<path class="hatch_twee" d="M8.81,19.39c-0.247,0.197-0.506,0.404-0.81,0.586L1,26.975V27h1.389l8.495-8.497
				C9.869,18.522,9.381,18.933,8.81,19.39z"/>
			<path class="hatch_twee" d="M13.182,19.39c-0.114-0.091-0.219-0.181-0.332-0.265L4.975,27h1.414l7.255-7.255
				C13.481,19.628,13.328,19.508,13.182,19.39z"/>
			<path class="hatch_twee" d="M28.186,12.609c0.407-0.336,0.882-0.67,1.503-0.91L31,10.389V8.975l-4.491,4.489
				C27.235,13.366,27.69,13.018,28.186,12.609z"/>
			<path class="hatch_twee" d="M30.346,6.052c-0.025,0.004-0.055,0.009-0.079,0.014c-0.193,0.039-0.356,0.081-0.509,0.146
				l-0.01,0.015l-6.188,6.188c0.084,0.065,0.167,0.129,0.246,0.195c0.186,0.154,0.365,0.293,0.556,0.419L31,6.389V6
				C30.752,6,30.541,6.018,30.346,6.052z"/>
			<polygon class="hatch_twee" points="30.389,27 31,26.389 31,24.975 28.975,27 			"/>
			<polygon class="hatch_twee" points="26.389,27 31,22.389 31,20.975 24.975,27 			"/>
			<path class="hatch_twee" d="M4.003,19.972L1,22.975v1.414l4.002-4.002C4.61,20.292,4.288,20.142,4.003,19.972z"/>
			<path class="hatch_twee" d="M1.447,18.529L1,18.975v1.414l1.494-1.499C2.181,18.689,1.874,18.583,1.447,18.529z"/>
			<path class="hatch_twee" d="M15.889,13.498l7.052-7.05c-0.292-0.168-0.578-0.31-1.032-0.384l-7.178,7.176
				C15.038,13.395,15.411,13.486,15.889,13.498z"/>
			<path class="hatch_twee" d="M13.22,12.169l4.604-4.606c-0.104,0.062-0.226,0.131-0.342,0.184c-0.035,0.016-0.073,0.03-0.11,0.045
				c-0.086,0.036-0.172,0.072-0.266,0.101c-0.046,0.014-0.101,0.029-0.15,0.041C16.86,7.96,16.76,7.975,16.652,7.993
				c-0.048,0.008-0.095,0.017-0.145,0.023c-0.161,0.02-0.33,0.033-0.516,0.033h0c-0.004,0-0.062-0.003-0.062-0.003l-3.651,3.651
				C12.645,11.818,12.95,11.985,13.22,12.169z"/>
			<path class="hatch_twee" d="M5.356,8.034c-0.235-0.016-0.444-0.05-0.628-0.1c-0.001,0-0.003-0.001-0.004-0.001
				C4.54,7.882,4.377,7.819,4.232,7.744c0,0,0,0-0.001,0L1,10.975V11.5c0.296,0.004,0.566,0.031,0.812,0.078L5.356,8.034z"/>
			<path class="hatch_twee" d="M1.877,6.097L1,6.975v1.414l1.822-1.822C2.696,6.468,2.363,6.192,1.877,6.097z"/>
			<path class="hatch_twee" d="M3.812,12.61c0.182,0.157,0.361,0.29,0.55,0.415l6.992-6.99h0C11.189,6.014,11.015,6,10.824,6
				c0,0,0,0,0,0c-0.183,0-0.351,0.012-0.508,0.031c-0.014,0.002-0.027,0.005-0.041,0.007c-0.148,0.02-0.278,0.037-0.409,0.071
				l-6.303,6.304C3.648,12.479,3.733,12.542,3.812,12.61z"/>
			<path class="hatch_twee" d="M8.185,12.609c0.413-0.33,0.863-0.687,1.5-0.905l4.27-4.27c0,0,0,0,0,0
				c-0.273-0.186-0.791-0.608-0.799-0.615l-6.643,6.644C7.264,13.357,7.699,12.998,8.185,12.609z"/>
		</g>
		<g>
			<path class="hatch_twee" d="M20.992,11.5c0.304,0,0.571,0.031,0.818,0.078l3.629-3.629c-0.187-0.044-0.355-0.103-0.513-0.17
				c-0.013-0.006-0.028-0.011-0.041-0.017c-0.157-0.069-0.303-0.148-0.44-0.233l0,0l-4.013,4.01
				C20.605,11.518,20.795,11.5,20.992,11.5z"/>
			<path class="hatch_twee" d="M28.811,19.391c-0.247,0.198-0.507,0.405-0.813,0.586L20.975,27h1.414l8.497-8.498
				C29.87,18.523,29.382,18.933,28.811,19.391z"/>
			<path class="hatch_twee" d="M24,19.973L16.975,27h1.414l6.613-6.613C24.61,20.293,24.286,20.143,24,19.973z"/>
			<path class="hatch_twee" d="M15.992,20.5c-0.174,0.003-0.335-0.015-0.489-0.031L8.975,27h1.414l6.619-6.619
				C16.711,20.454,16.37,20.494,15.992,20.5z"/>
			<path class="hatch_twee" d="M21.445,18.528L12.975,27h1.414l8.108-8.106C22.184,18.692,21.872,18.583,21.445,18.528z"/>
			<path class="hatch_twee" d="M8.81,19.39c-0.247,0.197-0.506,0.404-0.81,0.586L1,26.975V27h1.389l8.495-8.497
				C9.869,18.522,9.381,18.933,8.81,19.39z"/>
			<path class="hatch_twee" d="M13.182,19.39c-0.114-0.091-0.219-0.181-0.332-0.265L4.975,27h1.414l7.255-7.255
				C13.481,19.628,13.328,19.508,13.182,19.39z"/>
			<path class="hatch_twee" d="M28.186,12.609c0.407-0.336,0.882-0.67,1.503-0.91L31,10.389V8.975l-4.491,4.489
				C27.235,13.366,27.69,13.018,28.186,12.609z"/>
			<path class="hatch_twee" d="M30.346,6.052c-0.025,0.004-0.055,0.009-0.079,0.014c-0.193,0.039-0.356,0.081-0.509,0.146
				l-0.01,0.015l-6.188,6.188c0.084,0.065,0.167,0.129,0.246,0.195c0.186,0.154,0.365,0.293,0.556,0.419L31,6.389V6
				C30.752,6,30.541,6.018,30.346,6.052z"/>
			<polygon class="hatch_twee" points="30.389,27 31,26.389 31,24.975 28.975,27 			"/>
			<polygon class="hatch_twee" points="26.389,27 31,22.389 31,20.975 24.975,27 			"/>
			<path class="hatch_twee" d="M4.003,19.972L1,22.975v1.414l4.002-4.002C4.61,20.292,4.288,20.142,4.003,19.972z"/>
			<path class="hatch_twee" d="M1.447,18.529L1,18.975v1.414l1.494-1.499C2.181,18.689,1.874,18.583,1.447,18.529z"/>
			<path class="hatch_twee" d="M15.889,13.498l7.052-7.05c-0.292-0.168-0.578-0.31-1.032-0.384l-7.178,7.176
				C15.038,13.395,15.411,13.486,15.889,13.498z"/>
			<path class="hatch_twee" d="M13.22,12.169l4.604-4.606c-0.104,0.062-0.226,0.131-0.342,0.184c-0.035,0.016-0.073,0.03-0.11,0.045
				c-0.086,0.036-0.172,0.072-0.266,0.101c-0.046,0.014-0.101,0.029-0.15,0.041C16.86,7.96,16.76,7.975,16.652,7.993
				c-0.048,0.008-0.095,0.017-0.145,0.023c-0.161,0.02-0.33,0.033-0.516,0.033h0c-0.004,0-0.062-0.003-0.062-0.003l-3.651,3.651
				C12.645,11.818,12.95,11.985,13.22,12.169z"/>
			<path class="hatch_twee" d="M5.356,8.034c-0.235-0.016-0.444-0.05-0.628-0.1c-0.001,0-0.003-0.001-0.004-0.001
				C4.54,7.882,4.377,7.819,4.232,7.744c0,0,0,0-0.001,0L1,10.975V11.5c0.296,0.004,0.566,0.031,0.812,0.078L5.356,8.034z"/>
			<path class="hatch_twee" d="M1.877,6.097L1,6.975v1.414l1.822-1.822C2.696,6.468,2.363,6.192,1.877,6.097z"/>
			<path class="hatch_twee" d="M3.812,12.61c0.182,0.157,0.361,0.29,0.55,0.415l6.992-6.99h0C11.189,6.014,11.015,6,10.824,6
				c0,0,0,0,0,0c-0.183,0-0.351,0.012-0.508,0.031c-0.014,0.002-0.027,0.005-0.041,0.007c-0.148,0.02-0.278,0.037-0.409,0.071
				l-6.303,6.304C3.648,12.479,3.733,12.542,3.812,12.61z"/>
			<path class="hatch_twee" d="M8.185,12.609c0.413-0.33,0.863-0.687,1.5-0.905l4.27-4.27c0,0,0,0,0,0
				c-0.273-0.186-0.791-0.608-0.799-0.615l-6.643,6.644C7.264,13.357,7.699,12.998,8.185,12.609z"/>
		</g>
	</g>
	<path class="hatch_een" d="M31,5c-1.705,0-2.473,0.759-3.033,1.313c-0.463,0.459-0.743,0.735-1.626,0.735
		c-0.946,0-1.375-0.339-1.967-0.808C23.675,5.688,22.807,5,21.165,5c-1.641,0-2.51,0.688-3.207,1.241
		c-0.592,0.469-1.02,0.808-1.965,0.808c-0.944,0-1.371-0.339-1.963-0.808C13.332,5.688,12.464,5,10.824,5
		C9.183,5,8.315,5.688,7.617,6.241C7.025,6.71,6.597,7.049,5.653,7.049c-0.881,0-1.16-0.277-1.622-0.735C3.47,5.759,2.704,5,1,5
		C0.448,5,0,5.448,0,6v21c0,0.552,0.448,1,1,1h30c0.552,0,1-0.448,1-1V6C32,5.448,31.552,5,31,5z M31,27H1v-8.5
		c1.074,0,1.59,0.413,2.187,0.891c0.649,0.52,1.386,1.109,2.811,1.109c1.426,0,2.162-0.589,2.812-1.11
		c0.597-0.478,1.112-0.89,2.187-0.89c1.073,0,1.589,0.413,2.186,0.89c0.649,0.521,1.386,1.11,2.811,1.11
		c1.426,0,2.162-0.589,2.812-1.109c0.597-0.478,1.113-0.891,2.188-0.891c1.076,0,1.592,0.413,2.189,0.891
		c0.65,0.52,1.389,1.109,2.814,1.109s2.164-0.589,2.814-1.109C29.408,18.913,29.924,18.5,31,18.5V27z M31,17.5
		c-1.426,0-2.164,0.589-2.814,1.109c-0.598,0.478-1.113,0.891-2.189,0.891s-1.592-0.413-2.189-0.891
		c-0.65-0.52-1.389-1.109-2.814-1.109s-2.162,0.589-2.812,1.109c-0.597,0.478-1.113,0.891-2.188,0.891
		c-1.073,0-1.589-0.413-2.186-0.89c-0.649-0.521-1.386-1.11-2.811-1.11s-2.161,0.589-2.812,1.109
		C7.588,19.087,7.072,19.5,5.997,19.5c-1.073,0-1.589-0.413-2.186-0.89C3.162,18.09,2.425,17.5,1,17.5v-5
		c1.074,0,1.59,0.413,2.187,0.891c0.649,0.52,1.386,1.109,2.811,1.109c1.426,0,2.162-0.589,2.812-1.11
		c0.597-0.478,1.112-0.89,2.187-0.89c1.073,0,1.589,0.413,2.186,0.89c0.649,0.521,1.386,1.11,2.811,1.11
		c1.426,0,2.162-0.589,2.812-1.109c0.597-0.478,1.113-0.891,2.188-0.891c1.076,0,1.592,0.413,2.189,0.891
		c0.65,0.52,1.389,1.109,2.814,1.109s2.164-0.589,2.814-1.109C29.408,12.913,29.924,12.5,31,12.5V17.5z M31,11.5
		c-1.426,0-2.164,0.589-2.814,1.109c-0.598,0.478-1.113,0.891-2.189,0.891s-1.592-0.413-2.189-0.891
		c-0.65-0.52-1.389-1.109-2.814-1.109s-2.162,0.589-2.812,1.109c-0.597,0.478-1.113,0.891-2.188,0.891
		c-1.073,0-1.589-0.413-2.186-0.89c-0.649-0.521-1.386-1.11-2.811-1.11s-2.161,0.589-2.812,1.109
		C7.588,13.087,7.072,13.5,5.997,13.5c-1.073,0-1.589-0.413-2.186-0.89C3.162,12.09,2.425,11.5,1,11.5V6
		c2.585,0,2.068,2.049,4.653,2.049C8.238,8.049,8.238,6,10.824,6c2.584,0,2.584,2.049,5.168,2.049C18.578,8.049,18.578,6,21.165,6
		c2.588,0,2.588,2.049,5.176,2.049S28.412,6,31,6V11.5z"/>
</g>
</svg>